<mxfile host="app.diagrams.net" agent="Mozilla/5.0 (Windows NT 10.0; Win64; x64) AppleWebKit/537.36 (KHTML, like Gecko) Chrome/134.0.0.0 Safari/537.36" version="26.2.2">
  <diagram id="C5RBs43oDa-KdzZeNtuy" name="Page-1">
    <mxGraphModel grid="1" page="1" gridSize="10" guides="1" tooltips="1" connect="1" arrows="1" fold="1" pageScale="1" pageWidth="827" pageHeight="1169" math="0" shadow="0">
      <root>
        <mxCell id="WIyWlLk6GJQsqaUBKTNV-0" />
        <mxCell id="WIyWlLk6GJQsqaUBKTNV-1" parent="WIyWlLk6GJQsqaUBKTNV-0" />
        <mxCell id="3o4dioovXkOnNdMlUyPI-0" value="Field" style="swimlane;fontStyle=1;align=center;verticalAlign=top;childLayout=stackLayout;horizontal=1;startSize=26;horizontalStack=0;resizeParent=1;resizeParentMax=0;resizeLast=0;collapsible=1;marginBottom=0;whiteSpace=wrap;html=1;" vertex="1" parent="WIyWlLk6GJQsqaUBKTNV-1">
          <mxGeometry x="170" y="741" width="230" height="180" as="geometry" />
        </mxCell>
        <mxCell id="3o4dioovXkOnNdMlUyPI-1" value="- draggableChip: DraggableChipLogic&lt;div&gt;- mergeableLogic: MergeableChipLogic&lt;/div&gt;&lt;div&gt;- fillContainerLogic:&amp;nbsp;FillContainerLogic&lt;/div&gt;&lt;div&gt;- cells: Cell[,]&lt;/div&gt;" style="text;strokeColor=none;fillColor=none;align=left;verticalAlign=top;spacingLeft=4;spacingRight=4;overflow=hidden;rotatable=0;points=[[0,0.5],[1,0.5]];portConstraint=eastwest;whiteSpace=wrap;html=1;" vertex="1" parent="3o4dioovXkOnNdMlUyPI-0">
          <mxGeometry y="26" width="230" height="74" as="geometry" />
        </mxCell>
        <mxCell id="3o4dioovXkOnNdMlUyPI-2" value="" style="line;strokeWidth=1;fillColor=none;align=left;verticalAlign=middle;spacingTop=-1;spacingLeft=3;spacingRight=3;rotatable=0;labelPosition=right;points=[];portConstraint=eastwest;strokeColor=inherit;" vertex="1" parent="3o4dioovXkOnNdMlUyPI-0">
          <mxGeometry y="100" width="230" height="10" as="geometry" />
        </mxCell>
        <mxCell id="3o4dioovXkOnNdMlUyPI-3" value="+ OnTap(position): void&lt;div&gt;+ OnDragStart(position): void&lt;/div&gt;&lt;div&gt;+ OnDrag(position): void&lt;/div&gt;&lt;div&gt;+ OnDragEnd(position): void&lt;/div&gt;" style="text;strokeColor=none;fillColor=none;align=left;verticalAlign=top;spacingLeft=4;spacingRight=4;overflow=hidden;rotatable=0;points=[[0,0.5],[1,0.5]];portConstraint=eastwest;whiteSpace=wrap;html=1;" vertex="1" parent="3o4dioovXkOnNdMlUyPI-0">
          <mxGeometry y="110" width="230" height="70" as="geometry" />
        </mxCell>
        <mxCell id="26xBnhCFgFnMV5GdQ-SK-15" style="edgeStyle=orthogonalEdgeStyle;rounded=0;orthogonalLoop=1;jettySize=auto;html=1;" edge="1" parent="WIyWlLk6GJQsqaUBKTNV-1" source="3o4dioovXkOnNdMlUyPI-4" target="3o4dioovXkOnNdMlUyPI-1">
          <mxGeometry relative="1" as="geometry">
            <Array as="points">
              <mxPoint x="130" y="910" />
              <mxPoint x="130" y="830" />
            </Array>
          </mxGeometry>
        </mxCell>
        <mxCell id="3o4dioovXkOnNdMlUyPI-4" value="Cell" style="swimlane;fontStyle=1;align=center;verticalAlign=top;childLayout=stackLayout;horizontal=1;startSize=26;horizontalStack=0;resizeParent=1;resizeParentMax=0;resizeLast=0;collapsible=1;marginBottom=0;whiteSpace=wrap;html=1;" vertex="1" parent="WIyWlLk6GJQsqaUBKTNV-1">
          <mxGeometry x="-125" y="899" width="200" height="170" as="geometry" />
        </mxCell>
        <mxCell id="3o4dioovXkOnNdMlUyPI-5" value="- chip: Chip" style="text;strokeColor=none;fillColor=none;align=left;verticalAlign=top;spacingLeft=4;spacingRight=4;overflow=hidden;rotatable=0;points=[[0,0.5],[1,0.5]];portConstraint=eastwest;whiteSpace=wrap;html=1;" vertex="1" parent="3o4dioovXkOnNdMlUyPI-4">
          <mxGeometry y="26" width="200" height="26" as="geometry" />
        </mxCell>
        <mxCell id="3o4dioovXkOnNdMlUyPI-6" value="" style="line;strokeWidth=1;fillColor=none;align=left;verticalAlign=middle;spacingTop=-1;spacingLeft=3;spacingRight=3;rotatable=0;labelPosition=right;points=[];portConstraint=eastwest;strokeColor=inherit;" vertex="1" parent="3o4dioovXkOnNdMlUyPI-4">
          <mxGeometry y="52" width="200" height="8" as="geometry" />
        </mxCell>
        <mxCell id="3o4dioovXkOnNdMlUyPI-7" value="+ SetChip(Chip): void&lt;div&gt;+ OnTap(): void&lt;/div&gt;&lt;div&gt;+ OnDragStart(position): void&lt;/div&gt;&lt;div&gt;+ OnDrag(position): void&lt;/div&gt;&lt;div&gt;+ OnDragEnd(Cell prevCell): void&lt;/div&gt;&lt;div&gt;&lt;br&gt;&lt;/div&gt;" style="text;strokeColor=none;fillColor=none;align=left;verticalAlign=top;spacingLeft=4;spacingRight=4;overflow=hidden;rotatable=0;points=[[0,0.5],[1,0.5]];portConstraint=eastwest;whiteSpace=wrap;html=1;" vertex="1" parent="3o4dioovXkOnNdMlUyPI-4">
          <mxGeometry y="60" width="200" height="110" as="geometry" />
        </mxCell>
        <mxCell id="3o4dioovXkOnNdMlUyPI-8" value="GameManager" style="swimlane;fontStyle=1;align=center;verticalAlign=top;childLayout=stackLayout;horizontal=1;startSize=26;horizontalStack=0;resizeParent=1;resizeParentMax=0;resizeLast=0;collapsible=1;marginBottom=0;whiteSpace=wrap;html=1;" vertex="1" parent="WIyWlLk6GJQsqaUBKTNV-1">
          <mxGeometry x="320" y="260" width="210" height="190" as="geometry" />
        </mxCell>
        <mxCell id="3o4dioovXkOnNdMlUyPI-9" value="- chipFactory: ChipFactory&lt;div&gt;- inputManager: InputManager&lt;/div&gt;&lt;div&gt;- field: Field&lt;/div&gt;" style="text;strokeColor=none;fillColor=none;align=left;verticalAlign=top;spacingLeft=4;spacingRight=4;overflow=hidden;rotatable=0;points=[[0,0.5],[1,0.5]];portConstraint=eastwest;whiteSpace=wrap;html=1;" vertex="1" parent="3o4dioovXkOnNdMlUyPI-8">
          <mxGeometry y="26" width="210" height="54" as="geometry" />
        </mxCell>
        <mxCell id="3o4dioovXkOnNdMlUyPI-10" value="" style="line;strokeWidth=1;fillColor=none;align=left;verticalAlign=middle;spacingTop=-1;spacingLeft=3;spacingRight=3;rotatable=0;labelPosition=right;points=[];portConstraint=eastwest;strokeColor=inherit;" vertex="1" parent="3o4dioovXkOnNdMlUyPI-8">
          <mxGeometry y="80" width="210" height="8" as="geometry" />
        </mxCell>
        <mxCell id="3o4dioovXkOnNdMlUyPI-11" value="+ OnTap(position): void&lt;div&gt;+ OnDragStart(position): void&lt;/div&gt;&lt;div&gt;+ OnDrag(position): void&lt;/div&gt;&lt;div&gt;+ OnDragEnd(position): void&lt;/div&gt;" style="text;strokeColor=none;fillColor=none;align=left;verticalAlign=top;spacingLeft=4;spacingRight=4;overflow=hidden;rotatable=0;points=[[0,0.5],[1,0.5]];portConstraint=eastwest;whiteSpace=wrap;html=1;" vertex="1" parent="3o4dioovXkOnNdMlUyPI-8">
          <mxGeometry y="88" width="210" height="102" as="geometry" />
        </mxCell>
        <mxCell id="WkhDi4EtuVTFfCmYv7jr-7" style="edgeStyle=orthogonalEdgeStyle;rounded=0;orthogonalLoop=1;jettySize=auto;html=1;" edge="1" parent="WIyWlLk6GJQsqaUBKTNV-1" source="3o4dioovXkOnNdMlUyPI-12" target="3o4dioovXkOnNdMlUyPI-16">
          <mxGeometry relative="1" as="geometry" />
        </mxCell>
        <mxCell id="3o4dioovXkOnNdMlUyPI-12" value="Chip" style="swimlane;fontStyle=1;align=center;verticalAlign=top;childLayout=stackLayout;horizontal=1;startSize=26;horizontalStack=0;resizeParent=1;resizeParentMax=0;resizeLast=0;collapsible=1;marginBottom=0;whiteSpace=wrap;html=1;" vertex="1" parent="WIyWlLk6GJQsqaUBKTNV-1">
          <mxGeometry x="960" y="330" width="200" height="120" as="geometry" />
        </mxCell>
        <mxCell id="3o4dioovXkOnNdMlUyPI-13" value="&lt;div&gt;+ data: ChipData&lt;/div&gt;&lt;div&gt;+ effects: ChipEffect[]&lt;/div&gt;" style="text;strokeColor=none;fillColor=none;align=left;verticalAlign=top;spacingLeft=4;spacingRight=4;overflow=hidden;rotatable=0;points=[[0,0.5],[1,0.5]];portConstraint=eastwest;whiteSpace=wrap;html=1;" vertex="1" parent="3o4dioovXkOnNdMlUyPI-12">
          <mxGeometry y="26" width="200" height="34" as="geometry" />
        </mxCell>
        <mxCell id="3o4dioovXkOnNdMlUyPI-14" value="" style="line;strokeWidth=1;fillColor=none;align=left;verticalAlign=middle;spacingTop=-1;spacingLeft=3;spacingRight=3;rotatable=0;labelPosition=right;points=[];portConstraint=eastwest;strokeColor=inherit;" vertex="1" parent="3o4dioovXkOnNdMlUyPI-12">
          <mxGeometry y="60" width="200" height="8" as="geometry" />
        </mxCell>
        <mxCell id="3o4dioovXkOnNdMlUyPI-15" value="&lt;div&gt;+ OnDragStart(position): void&lt;/div&gt;&lt;div&gt;+ OnDrag(position): void&lt;/div&gt;&lt;div&gt;+ OnDragEnd(Cell prevCell): void&lt;/div&gt;" style="text;strokeColor=none;fillColor=none;align=left;verticalAlign=top;spacingLeft=4;spacingRight=4;overflow=hidden;rotatable=0;points=[[0,0.5],[1,0.5]];portConstraint=eastwest;whiteSpace=wrap;html=1;" vertex="1" parent="3o4dioovXkOnNdMlUyPI-12">
          <mxGeometry y="68" width="200" height="52" as="geometry" />
        </mxCell>
        <mxCell id="3o4dioovXkOnNdMlUyPI-16" value="ChipFactory" style="swimlane;fontStyle=1;align=center;verticalAlign=top;childLayout=stackLayout;horizontal=1;startSize=26;horizontalStack=0;resizeParent=1;resizeParentMax=0;resizeLast=0;collapsible=1;marginBottom=0;whiteSpace=wrap;html=1;" vertex="1" parent="WIyWlLk6GJQsqaUBKTNV-1">
          <mxGeometry x="930" y="200" width="260" height="52" as="geometry" />
        </mxCell>
        <mxCell id="3o4dioovXkOnNdMlUyPI-19" value="+ CreateChip(Cell cell, ChipInfo chipInfo): Chip" style="text;strokeColor=none;fillColor=none;align=left;verticalAlign=top;spacingLeft=4;spacingRight=4;overflow=hidden;rotatable=0;points=[[0,0.5],[1,0.5]];portConstraint=eastwest;whiteSpace=wrap;html=1;" vertex="1" parent="3o4dioovXkOnNdMlUyPI-16">
          <mxGeometry y="26" width="260" height="26" as="geometry" />
        </mxCell>
        <mxCell id="3o4dioovXkOnNdMlUyPI-20" value="InputManager" style="swimlane;fontStyle=1;align=center;verticalAlign=top;childLayout=stackLayout;horizontal=1;startSize=26;horizontalStack=0;resizeParent=1;resizeParentMax=0;resizeLast=0;collapsible=1;marginBottom=0;whiteSpace=wrap;html=1;" vertex="1" parent="WIyWlLk6GJQsqaUBKTNV-1">
          <mxGeometry y="260" width="200" height="148" as="geometry" />
        </mxCell>
        <mxCell id="3o4dioovXkOnNdMlUyPI-21" value="- dragging: bool&lt;div&gt;&lt;div&gt;&lt;br&gt;&lt;/div&gt;&lt;/div&gt;" style="text;strokeColor=none;fillColor=none;align=left;verticalAlign=top;spacingLeft=4;spacingRight=4;overflow=hidden;rotatable=0;points=[[0,0.5],[1,0.5]];portConstraint=eastwest;whiteSpace=wrap;html=1;" vertex="1" parent="3o4dioovXkOnNdMlUyPI-20">
          <mxGeometry y="26" width="200" height="24" as="geometry" />
        </mxCell>
        <mxCell id="3o4dioovXkOnNdMlUyPI-22" value="" style="line;strokeWidth=1;fillColor=none;align=left;verticalAlign=middle;spacingTop=-1;spacingLeft=3;spacingRight=3;rotatable=0;labelPosition=right;points=[];portConstraint=eastwest;strokeColor=inherit;" vertex="1" parent="3o4dioovXkOnNdMlUyPI-20">
          <mxGeometry y="50" width="200" height="8" as="geometry" />
        </mxCell>
        <mxCell id="3o4dioovXkOnNdMlUyPI-23" value="- OnTap(position): void&lt;div&gt;- OnDragStart(position): void&lt;/div&gt;&lt;div&gt;- OnDrag(position): void&lt;/div&gt;&lt;div&gt;- OnDragEnd(position): void&lt;/div&gt;&lt;div&gt;- InputHandler(): void&lt;/div&gt;" style="text;strokeColor=none;fillColor=none;align=left;verticalAlign=top;spacingLeft=4;spacingRight=4;overflow=hidden;rotatable=0;points=[[0,0.5],[1,0.5]];portConstraint=eastwest;whiteSpace=wrap;html=1;" vertex="1" parent="3o4dioovXkOnNdMlUyPI-20">
          <mxGeometry y="58" width="200" height="90" as="geometry" />
        </mxCell>
        <mxCell id="3o4dioovXkOnNdMlUyPI-24" value="ChipGenerator" style="swimlane;fontStyle=1;align=center;verticalAlign=top;childLayout=stackLayout;horizontal=1;startSize=26;horizontalStack=0;resizeParent=1;resizeParentMax=0;resizeLast=0;collapsible=1;marginBottom=0;whiteSpace=wrap;html=1;" vertex="1" parent="WIyWlLk6GJQsqaUBKTNV-1">
          <mxGeometry x="840" y="512" width="210" height="130" as="geometry" />
        </mxCell>
        <mxCell id="3o4dioovXkOnNdMlUyPI-25" value="- runtimeData: RuntimeData&lt;div&gt;- generatorData: ChipGeneratorData&lt;/div&gt;&lt;div&gt;- OnCharging(float progress): event&lt;/div&gt;" style="text;strokeColor=none;fillColor=none;align=left;verticalAlign=top;spacingLeft=4;spacingRight=4;overflow=hidden;rotatable=0;points=[[0,0.5],[1,0.5]];portConstraint=eastwest;whiteSpace=wrap;html=1;" vertex="1" parent="3o4dioovXkOnNdMlUyPI-24">
          <mxGeometry y="26" width="210" height="54" as="geometry" />
        </mxCell>
        <mxCell id="3o4dioovXkOnNdMlUyPI-26" value="" style="line;strokeWidth=1;fillColor=none;align=left;verticalAlign=middle;spacingTop=-1;spacingLeft=3;spacingRight=3;rotatable=0;labelPosition=right;points=[];portConstraint=eastwest;strokeColor=inherit;" vertex="1" parent="3o4dioovXkOnNdMlUyPI-24">
          <mxGeometry y="80" width="210" height="8" as="geometry" />
        </mxCell>
        <mxCell id="3o4dioovXkOnNdMlUyPI-27" value="+ OnTap(position): void&lt;div&gt;+ Update(): void&lt;/div&gt;" style="text;strokeColor=none;fillColor=none;align=left;verticalAlign=top;spacingLeft=4;spacingRight=4;overflow=hidden;rotatable=0;points=[[0,0.5],[1,0.5]];portConstraint=eastwest;whiteSpace=wrap;html=1;" vertex="1" parent="3o4dioovXkOnNdMlUyPI-24">
          <mxGeometry y="88" width="210" height="42" as="geometry" />
        </mxCell>
        <mxCell id="3o4dioovXkOnNdMlUyPI-28" value="ChipContainer" style="swimlane;fontStyle=1;align=center;verticalAlign=top;childLayout=stackLayout;horizontal=1;startSize=26;horizontalStack=0;resizeParent=1;resizeParentMax=0;resizeLast=0;collapsible=1;marginBottom=0;whiteSpace=wrap;html=1;" vertex="1" parent="WIyWlLk6GJQsqaUBKTNV-1">
          <mxGeometry x="1120" y="512" width="210" height="86" as="geometry" />
        </mxCell>
        <mxCell id="3o4dioovXkOnNdMlUyPI-29" value="+ OnFillContainer(Chip, isFull): Event" style="text;strokeColor=none;fillColor=none;align=left;verticalAlign=top;spacingLeft=4;spacingRight=4;overflow=hidden;rotatable=0;points=[[0,0.5],[1,0.5]];portConstraint=eastwest;whiteSpace=wrap;html=1;" vertex="1" parent="3o4dioovXkOnNdMlUyPI-28">
          <mxGeometry y="26" width="210" height="26" as="geometry" />
        </mxCell>
        <mxCell id="3o4dioovXkOnNdMlUyPI-30" value="" style="line;strokeWidth=1;fillColor=none;align=left;verticalAlign=middle;spacingTop=-1;spacingLeft=3;spacingRight=3;rotatable=0;labelPosition=right;points=[];portConstraint=eastwest;strokeColor=inherit;" vertex="1" parent="3o4dioovXkOnNdMlUyPI-28">
          <mxGeometry y="52" width="210" height="8" as="geometry" />
        </mxCell>
        <mxCell id="3o4dioovXkOnNdMlUyPI-31" value="+ method(type): type" style="text;strokeColor=none;fillColor=none;align=left;verticalAlign=top;spacingLeft=4;spacingRight=4;overflow=hidden;rotatable=0;points=[[0,0.5],[1,0.5]];portConstraint=eastwest;whiteSpace=wrap;html=1;" vertex="1" parent="3o4dioovXkOnNdMlUyPI-28">
          <mxGeometry y="60" width="210" height="26" as="geometry" />
        </mxCell>
        <mxCell id="3o4dioovXkOnNdMlUyPI-32" style="edgeStyle=orthogonalEdgeStyle;rounded=0;orthogonalLoop=1;jettySize=auto;html=1;exitX=0.5;exitY=0;exitDx=0;exitDy=0;entryX=0.456;entryY=1;entryDx=0;entryDy=0;entryPerimeter=0;" edge="1" parent="WIyWlLk6GJQsqaUBKTNV-1" source="3o4dioovXkOnNdMlUyPI-28" target="3o4dioovXkOnNdMlUyPI-15">
          <mxGeometry relative="1" as="geometry" />
        </mxCell>
        <mxCell id="3o4dioovXkOnNdMlUyPI-33" style="edgeStyle=orthogonalEdgeStyle;rounded=0;orthogonalLoop=1;jettySize=auto;html=1;exitX=0.5;exitY=0;exitDx=0;exitDy=0;entryX=0.45;entryY=1;entryDx=0;entryDy=0;entryPerimeter=0;" edge="1" parent="WIyWlLk6GJQsqaUBKTNV-1" source="3o4dioovXkOnNdMlUyPI-24" target="3o4dioovXkOnNdMlUyPI-15">
          <mxGeometry relative="1" as="geometry" />
        </mxCell>
        <mxCell id="3o4dioovXkOnNdMlUyPI-47" style="edgeStyle=orthogonalEdgeStyle;rounded=0;orthogonalLoop=1;jettySize=auto;html=1;exitX=0.5;exitY=0;exitDx=0;exitDy=0;entryX=0.505;entryY=1.015;entryDx=0;entryDy=0;entryPerimeter=0;" edge="1" parent="WIyWlLk6GJQsqaUBKTNV-1" source="3o4dioovXkOnNdMlUyPI-0" target="3o4dioovXkOnNdMlUyPI-11">
          <mxGeometry relative="1" as="geometry">
            <Array as="points">
              <mxPoint x="285" y="480" />
              <mxPoint x="426" y="480" />
            </Array>
          </mxGeometry>
        </mxCell>
        <mxCell id="3o4dioovXkOnNdMlUyPI-52" style="edgeStyle=orthogonalEdgeStyle;rounded=0;orthogonalLoop=1;jettySize=auto;html=1;exitX=1;exitY=0.5;exitDx=0;exitDy=0;" edge="1" parent="WIyWlLk6GJQsqaUBKTNV-1" source="3o4dioovXkOnNdMlUyPI-9" target="3o4dioovXkOnNdMlUyPI-16">
          <mxGeometry relative="1" as="geometry" />
        </mxCell>
        <mxCell id="VM-D98bv77TfouPsAE3m-0" value="MergeableChipLogic" style="swimlane;fontStyle=1;align=center;verticalAlign=top;childLayout=stackLayout;horizontal=1;startSize=26;horizontalStack=0;resizeParent=1;resizeParentMax=0;resizeLast=0;collapsible=1;marginBottom=0;whiteSpace=wrap;html=1;" vertex="1" parent="WIyWlLk6GJQsqaUBKTNV-1">
          <mxGeometry x="-135" y="740" width="210" height="56" as="geometry" />
        </mxCell>
        <mxCell id="VM-D98bv77TfouPsAE3m-3" value="&lt;div&gt;+ Merge(draggbleCell, overCell): bool&lt;/div&gt;" style="text;strokeColor=none;fillColor=none;align=left;verticalAlign=top;spacingLeft=4;spacingRight=4;overflow=hidden;rotatable=0;points=[[0,0.5],[1,0.5]];portConstraint=eastwest;whiteSpace=wrap;html=1;" vertex="1" parent="VM-D98bv77TfouPsAE3m-0">
          <mxGeometry y="26" width="210" height="30" as="geometry" />
        </mxCell>
        <mxCell id="VM-D98bv77TfouPsAE3m-7" value="Extends" style="text;align=center;fontStyle=1;verticalAlign=middle;spacingLeft=3;spacingRight=3;strokeColor=none;rotatable=0;points=[[0,0.5],[1,0.5]];portConstraint=eastwest;html=1;" vertex="1" parent="WIyWlLk6GJQsqaUBKTNV-1">
          <mxGeometry x="1010" y="486" width="80" height="26" as="geometry" />
        </mxCell>
        <mxCell id="VM-D98bv77TfouPsAE3m-8" value="ChipData" style="swimlane;fontStyle=1;align=center;verticalAlign=top;childLayout=stackLayout;horizontal=1;startSize=26;horizontalStack=0;resizeParent=1;resizeParentMax=0;resizeLast=0;collapsible=1;marginBottom=0;whiteSpace=wrap;html=1;" vertex="1" parent="WIyWlLk6GJQsqaUBKTNV-1">
          <mxGeometry x="555" y="920" width="250" height="120" as="geometry" />
        </mxCell>
        <mxCell id="VM-D98bv77TfouPsAE3m-9" value="&lt;div&gt;+ chipType: string&lt;/div&gt;&lt;div&gt;+ prefabLink: GameObject&lt;/div&gt;&lt;div&gt;+ chipMergeData: ChipMergeData&lt;/div&gt;&lt;div&gt;+ chipGeneratorData: ChipGeneratorData&lt;/div&gt;&lt;div&gt;+ chipContainerData: ChipContainerData&lt;/div&gt;" style="text;strokeColor=none;fillColor=none;align=left;verticalAlign=top;spacingLeft=4;spacingRight=4;overflow=hidden;rotatable=0;points=[[0,0.5],[1,0.5]];portConstraint=eastwest;whiteSpace=wrap;html=1;" vertex="1" parent="VM-D98bv77TfouPsAE3m-8">
          <mxGeometry y="26" width="250" height="94" as="geometry" />
        </mxCell>
        <mxCell id="4DkXrxLLNtpwcgmt0iSb-0" value="DraggableChipLogic" style="swimlane;fontStyle=1;align=center;verticalAlign=top;childLayout=stackLayout;horizontal=1;startSize=26;horizontalStack=0;resizeParent=1;resizeParentMax=0;resizeLast=0;collapsible=1;marginBottom=0;whiteSpace=wrap;html=1;" vertex="1" parent="WIyWlLk6GJQsqaUBKTNV-1">
          <mxGeometry x="-175" y="568" width="250" height="150" as="geometry" />
        </mxCell>
        <mxCell id="4DkXrxLLNtpwcgmt0iSb-1" value="+ chip: Chip&lt;div&gt;+ prevCell: Cell&lt;br&gt;&lt;/div&gt;&lt;div&gt;+ OnMerge(draggableCell, overCell): Event&lt;/div&gt;" style="text;strokeColor=none;fillColor=none;align=left;verticalAlign=top;spacingLeft=4;spacingRight=4;overflow=hidden;rotatable=0;points=[[0,0.5],[1,0.5]];portConstraint=eastwest;whiteSpace=wrap;html=1;" vertex="1" parent="4DkXrxLLNtpwcgmt0iSb-0">
          <mxGeometry y="26" width="250" height="54" as="geometry" />
        </mxCell>
        <mxCell id="4DkXrxLLNtpwcgmt0iSb-2" value="" style="line;strokeWidth=1;fillColor=none;align=left;verticalAlign=middle;spacingTop=-1;spacingLeft=3;spacingRight=3;rotatable=0;labelPosition=right;points=[];portConstraint=eastwest;strokeColor=inherit;" vertex="1" parent="4DkXrxLLNtpwcgmt0iSb-0">
          <mxGeometry y="80" width="250" height="8" as="geometry" />
        </mxCell>
        <mxCell id="4DkXrxLLNtpwcgmt0iSb-3" value="&lt;div&gt;+ OnDragStart(position): void&lt;/div&gt;&lt;div&gt;+ OnDrag(position): void&lt;/div&gt;&lt;div&gt;+ OnDragEnd(Cell prevCell): void&lt;/div&gt;" style="text;strokeColor=none;fillColor=none;align=left;verticalAlign=top;spacingLeft=4;spacingRight=4;overflow=hidden;rotatable=0;points=[[0,0.5],[1,0.5]];portConstraint=eastwest;whiteSpace=wrap;html=1;" vertex="1" parent="4DkXrxLLNtpwcgmt0iSb-0">
          <mxGeometry y="88" width="250" height="62" as="geometry" />
        </mxCell>
        <mxCell id="4DkXrxLLNtpwcgmt0iSb-5" style="edgeStyle=orthogonalEdgeStyle;rounded=0;orthogonalLoop=1;jettySize=auto;html=1;exitX=1;exitY=0.5;exitDx=0;exitDy=0;" edge="1" parent="WIyWlLk6GJQsqaUBKTNV-1" source="4DkXrxLLNtpwcgmt0iSb-1" target="3o4dioovXkOnNdMlUyPI-0">
          <mxGeometry relative="1" as="geometry">
            <Array as="points">
              <mxPoint x="130" y="613" />
              <mxPoint x="130" y="780" />
            </Array>
          </mxGeometry>
        </mxCell>
        <mxCell id="5rMyi0ZLvGSMBP4ajYkS-2" style="edgeStyle=orthogonalEdgeStyle;rounded=0;orthogonalLoop=1;jettySize=auto;html=1;exitX=0.5;exitY=0;exitDx=0;exitDy=0;entryX=0;entryY=0.5;entryDx=0;entryDy=0;" edge="1" parent="WIyWlLk6GJQsqaUBKTNV-1" source="VM-D98bv77TfouPsAE3m-8" target="3o4dioovXkOnNdMlUyPI-13">
          <mxGeometry relative="1" as="geometry">
            <Array as="points">
              <mxPoint x="680" y="910" />
              <mxPoint x="680" y="373" />
            </Array>
          </mxGeometry>
        </mxCell>
        <mxCell id="FAmbhVFWqH7xO8f8ccpw-0" value="ChipMergeData" style="swimlane;fontStyle=1;align=center;verticalAlign=top;childLayout=stackLayout;horizontal=1;startSize=26;horizontalStack=0;resizeParent=1;resizeParentMax=0;resizeLast=0;collapsible=1;marginBottom=0;whiteSpace=wrap;html=1;" vertex="1" parent="WIyWlLk6GJQsqaUBKTNV-1">
          <mxGeometry x="880" y="839" width="250" height="60" as="geometry" />
        </mxCell>
        <mxCell id="FAmbhVFWqH7xO8f8ccpw-1" value="+ NextChipData: ChipData" style="text;strokeColor=none;fillColor=none;align=left;verticalAlign=top;spacingLeft=4;spacingRight=4;overflow=hidden;rotatable=0;points=[[0,0.5],[1,0.5]];portConstraint=eastwest;whiteSpace=wrap;html=1;" vertex="1" parent="FAmbhVFWqH7xO8f8ccpw-0">
          <mxGeometry y="26" width="250" height="34" as="geometry" />
        </mxCell>
        <mxCell id="FAmbhVFWqH7xO8f8ccpw-3" value="ChipGeneratorData" style="swimlane;fontStyle=1;align=center;verticalAlign=top;childLayout=stackLayout;horizontal=1;startSize=26;horizontalStack=0;resizeParent=1;resizeParentMax=0;resizeLast=0;collapsible=1;marginBottom=0;whiteSpace=wrap;html=1;" vertex="1" parent="WIyWlLk6GJQsqaUBKTNV-1">
          <mxGeometry x="880" y="920" width="150" height="120" as="geometry" />
        </mxCell>
        <mxCell id="FAmbhVFWqH7xO8f8ccpw-10" style="edgeStyle=orthogonalEdgeStyle;rounded=0;orthogonalLoop=1;jettySize=auto;html=1;" edge="1" parent="FAmbhVFWqH7xO8f8ccpw-3" source="FAmbhVFWqH7xO8f8ccpw-4">
          <mxGeometry relative="1" as="geometry">
            <mxPoint x="-80" y="73" as="targetPoint" />
          </mxGeometry>
        </mxCell>
        <mxCell id="FAmbhVFWqH7xO8f8ccpw-4" value="+ Data: GeneratorData []&lt;div&gt;+&amp;nbsp;IsStartCharged: bool&lt;/div&gt;&lt;div&gt;+&amp;nbsp;ChargeCount: bool&lt;/div&gt;&lt;div&gt;+&amp;nbsp;ChargingTime: int&lt;/div&gt;" style="text;strokeColor=none;fillColor=none;align=left;verticalAlign=top;spacingLeft=4;spacingRight=4;overflow=hidden;rotatable=0;points=[[0,0.5],[1,0.5]];portConstraint=eastwest;whiteSpace=wrap;html=1;" vertex="1" parent="FAmbhVFWqH7xO8f8ccpw-3">
          <mxGeometry y="26" width="150" height="94" as="geometry" />
        </mxCell>
        <mxCell id="FAmbhVFWqH7xO8f8ccpw-6" value="ChipContainerData" style="swimlane;fontStyle=1;align=center;verticalAlign=top;childLayout=stackLayout;horizontal=1;startSize=26;horizontalStack=0;resizeParent=1;resizeParentMax=0;resizeLast=0;collapsible=1;marginBottom=0;whiteSpace=wrap;html=1;" vertex="1" parent="WIyWlLk6GJQsqaUBKTNV-1">
          <mxGeometry x="880" y="1080" width="160" height="70" as="geometry" />
        </mxCell>
        <mxCell id="FAmbhVFWqH7xO8f8ccpw-7" value="+ Data: ContainerData []&lt;div&gt;+ NextChipData: ChipData&lt;/div&gt;" style="text;strokeColor=none;fillColor=none;align=left;verticalAlign=top;spacingLeft=4;spacingRight=4;overflow=hidden;rotatable=0;points=[[0,0.5],[1,0.5]];portConstraint=eastwest;whiteSpace=wrap;html=1;" vertex="1" parent="FAmbhVFWqH7xO8f8ccpw-6">
          <mxGeometry y="26" width="160" height="44" as="geometry" />
        </mxCell>
        <mxCell id="FAmbhVFWqH7xO8f8ccpw-9" style="edgeStyle=orthogonalEdgeStyle;rounded=0;orthogonalLoop=1;jettySize=auto;html=1;entryX=1;entryY=0.5;entryDx=0;entryDy=0;" edge="1" parent="WIyWlLk6GJQsqaUBKTNV-1" source="FAmbhVFWqH7xO8f8ccpw-1" target="VM-D98bv77TfouPsAE3m-9">
          <mxGeometry relative="1" as="geometry" />
        </mxCell>
        <mxCell id="FAmbhVFWqH7xO8f8ccpw-11" style="edgeStyle=orthogonalEdgeStyle;rounded=0;orthogonalLoop=1;jettySize=auto;html=1;exitX=0;exitY=0.5;exitDx=0;exitDy=0;" edge="1" parent="WIyWlLk6GJQsqaUBKTNV-1" source="FAmbhVFWqH7xO8f8ccpw-7" target="VM-D98bv77TfouPsAE3m-9">
          <mxGeometry relative="1" as="geometry" />
        </mxCell>
        <mxCell id="z2g_uz5Iai7cVrWeaa7s-1" value="Namespace&lt;div&gt;Merge2&lt;/div&gt;" style="shape=umlFrame;whiteSpace=wrap;html=1;pointerEvents=0;width=100;height=60;" vertex="1" parent="WIyWlLk6GJQsqaUBKTNV-1">
          <mxGeometry x="-290" y="170" width="2370" height="1030" as="geometry" />
        </mxCell>
        <mxCell id="z2g_uz5Iai7cVrWeaa7s-19" style="edgeStyle=orthogonalEdgeStyle;rounded=0;orthogonalLoop=1;jettySize=auto;html=1;" edge="1" parent="WIyWlLk6GJQsqaUBKTNV-1" source="VM-D98bv77TfouPsAE3m-9" target="wb0kyCcmuDkZpGRQQZ2E-4">
          <mxGeometry relative="1" as="geometry">
            <mxPoint x="675" y="1080" as="sourcePoint" />
            <Array as="points">
              <mxPoint x="680" y="1754" />
            </Array>
            <mxPoint x="740" y="1792" as="targetPoint" />
          </mxGeometry>
        </mxCell>
        <mxCell id="26xBnhCFgFnMV5GdQ-SK-1" style="edgeStyle=orthogonalEdgeStyle;rounded=0;orthogonalLoop=1;jettySize=auto;html=1;" edge="1" parent="WIyWlLk6GJQsqaUBKTNV-1" source="WkhDi4EtuVTFfCmYv7jr-8" target="3o4dioovXkOnNdMlUyPI-28">
          <mxGeometry relative="1" as="geometry">
            <Array as="points">
              <mxPoint x="1460" y="810" />
              <mxPoint x="1225" y="810" />
            </Array>
          </mxGeometry>
        </mxCell>
        <mxCell id="z2g_uz5Iai7cVrWeaa7s-25" value="HeroChip" style="swimlane;fontStyle=1;align=center;verticalAlign=top;childLayout=stackLayout;horizontal=1;startSize=26;horizontalStack=0;resizeParent=1;resizeParentMax=0;resizeLast=0;collapsible=1;marginBottom=0;whiteSpace=wrap;html=1;" vertex="1" parent="WIyWlLk6GJQsqaUBKTNV-1">
          <mxGeometry x="1310" y="1680" width="200" height="100" as="geometry" />
        </mxCell>
        <mxCell id="z2g_uz5Iai7cVrWeaa7s-26" value="&lt;div&gt;- heroData: HeroData&lt;/div&gt;" style="text;strokeColor=none;fillColor=none;align=left;verticalAlign=top;spacingLeft=4;spacingRight=4;overflow=hidden;rotatable=0;points=[[0,0.5],[1,0.5]];portConstraint=eastwest;whiteSpace=wrap;html=1;" vertex="1" parent="z2g_uz5Iai7cVrWeaa7s-25">
          <mxGeometry y="26" width="200" height="24" as="geometry" />
        </mxCell>
        <mxCell id="z2g_uz5Iai7cVrWeaa7s-27" value="" style="line;strokeWidth=1;fillColor=none;align=left;verticalAlign=middle;spacingTop=-1;spacingLeft=3;spacingRight=3;rotatable=0;labelPosition=right;points=[];portConstraint=eastwest;strokeColor=inherit;" vertex="1" parent="z2g_uz5Iai7cVrWeaa7s-25">
          <mxGeometry y="50" width="200" height="8" as="geometry" />
        </mxCell>
        <mxCell id="z2g_uz5Iai7cVrWeaa7s-28" value="- OnFillContainer(Chip, isFull): void&lt;div&gt;- Equip(EquipmentItem item): void&lt;/div&gt;" style="text;strokeColor=none;fillColor=none;align=left;verticalAlign=top;spacingLeft=4;spacingRight=4;overflow=hidden;rotatable=0;points=[[0,0.5],[1,0.5]];portConstraint=eastwest;whiteSpace=wrap;html=1;" vertex="1" parent="z2g_uz5Iai7cVrWeaa7s-25">
          <mxGeometry y="58" width="200" height="42" as="geometry" />
        </mxCell>
        <mxCell id="WkhDi4EtuVTFfCmYv7jr-0" value="HeroDataBase" style="swimlane;fontStyle=1;align=center;verticalAlign=top;childLayout=stackLayout;horizontal=1;startSize=26;horizontalStack=0;resizeParent=1;resizeParentMax=0;resizeLast=0;collapsible=1;marginBottom=0;whiteSpace=wrap;html=1;" vertex="1" parent="WIyWlLk6GJQsqaUBKTNV-1">
          <mxGeometry x="1020" y="1680" width="200" height="140" as="geometry" />
        </mxCell>
        <mxCell id="WkhDi4EtuVTFfCmYv7jr-1" value="- weapons:&amp;nbsp;&lt;span style=&quot;font-weight: 700; text-align: center;&quot;&gt;HeroDataBase.Data&lt;/span&gt;&lt;div&gt;- armors:&amp;nbsp;&lt;span style=&quot;font-weight: 700; text-align: center; background-color: transparent; color: light-dark(rgb(0, 0, 0), rgb(255, 255, 255));&quot;&gt;HeroDataBase.Data&lt;/span&gt;&lt;/div&gt;&lt;div&gt;- helmets:&amp;nbsp;&lt;span style=&quot;font-weight: 700; text-align: center; background-color: transparent; color: light-dark(rgb(0, 0, 0), rgb(255, 255, 255));&quot;&gt;HeroDataBase.Data&lt;/span&gt;&lt;/div&gt;&lt;div&gt;- shields:&amp;nbsp;&lt;span style=&quot;font-weight: 700; text-align: center; background-color: transparent; color: light-dark(rgb(0, 0, 0), rgb(255, 255, 255));&quot;&gt;HeroDataBase.Data&lt;/span&gt;&lt;/div&gt;" style="text;strokeColor=none;fillColor=none;align=left;verticalAlign=top;spacingLeft=4;spacingRight=4;overflow=hidden;rotatable=0;points=[[0,0.5],[1,0.5]];portConstraint=eastwest;whiteSpace=wrap;html=1;" vertex="1" parent="WkhDi4EtuVTFfCmYv7jr-0">
          <mxGeometry y="26" width="200" height="74" as="geometry" />
        </mxCell>
        <mxCell id="WkhDi4EtuVTFfCmYv7jr-2" value="" style="line;strokeWidth=1;fillColor=none;align=left;verticalAlign=middle;spacingTop=-1;spacingLeft=3;spacingRight=3;rotatable=0;labelPosition=right;points=[];portConstraint=eastwest;strokeColor=inherit;" vertex="1" parent="WkhDi4EtuVTFfCmYv7jr-0">
          <mxGeometry y="100" width="200" height="8" as="geometry" />
        </mxCell>
        <mxCell id="WkhDi4EtuVTFfCmYv7jr-3" value="+ Find(ChipData): Hero***Data" style="text;strokeColor=none;fillColor=none;align=left;verticalAlign=top;spacingLeft=4;spacingRight=4;overflow=hidden;rotatable=0;points=[[0,0.5],[1,0.5]];portConstraint=eastwest;whiteSpace=wrap;html=1;" vertex="1" parent="WkhDi4EtuVTFfCmYv7jr-0">
          <mxGeometry y="108" width="200" height="32" as="geometry" />
        </mxCell>
        <mxCell id="WkhDi4EtuVTFfCmYv7jr-10" value="namespace HeroMerge2" style="shape=umlFrame;whiteSpace=wrap;html=1;pointerEvents=0;fillColor=none;strokeColor=default;shadow=0;sketch=1;curveFitting=1;jiggle=2;gradientColor=none;width=110;height=50;" vertex="1" parent="WIyWlLk6GJQsqaUBKTNV-1">
          <mxGeometry x="-10" y="1510" width="1640" height="450" as="geometry" />
        </mxCell>
        <mxCell id="3cJ3J4fkFggetLJPWg2o-9" style="edgeStyle=orthogonalEdgeStyle;rounded=0;orthogonalLoop=1;jettySize=auto;html=1;" edge="1" parent="WIyWlLk6GJQsqaUBKTNV-1" source="3cJ3J4fkFggetLJPWg2o-0" target="3o4dioovXkOnNdMlUyPI-13">
          <mxGeometry relative="1" as="geometry" />
        </mxCell>
        <mxCell id="3cJ3J4fkFggetLJPWg2o-0" value="ChipEffect" style="swimlane;fontStyle=1;align=center;verticalAlign=top;childLayout=stackLayout;horizontal=1;startSize=26;horizontalStack=0;resizeParent=1;resizeParentMax=0;resizeLast=0;collapsible=1;marginBottom=0;whiteSpace=wrap;html=1;" vertex="1" parent="WIyWlLk6GJQsqaUBKTNV-1">
          <mxGeometry x="1650" y="405" width="200" height="120" as="geometry" />
        </mxCell>
        <mxCell id="3cJ3J4fkFggetLJPWg2o-1" value="+&amp;nbsp;" style="text;strokeColor=none;fillColor=none;align=left;verticalAlign=top;spacingLeft=4;spacingRight=4;overflow=hidden;rotatable=0;points=[[0,0.5],[1,0.5]];portConstraint=eastwest;whiteSpace=wrap;html=1;" vertex="1" parent="3cJ3J4fkFggetLJPWg2o-0">
          <mxGeometry y="26" width="200" height="34" as="geometry" />
        </mxCell>
        <mxCell id="3cJ3J4fkFggetLJPWg2o-2" value="" style="line;strokeWidth=1;fillColor=none;align=left;verticalAlign=middle;spacingTop=-1;spacingLeft=3;spacingRight=3;rotatable=0;labelPosition=right;points=[];portConstraint=eastwest;strokeColor=inherit;" vertex="1" parent="3cJ3J4fkFggetLJPWg2o-0">
          <mxGeometry y="60" width="200" height="8" as="geometry" />
        </mxCell>
        <mxCell id="3cJ3J4fkFggetLJPWg2o-3" value="&lt;div&gt;+ Activete(): void&lt;/div&gt;&lt;div&gt;+ Deactivate(): void&lt;/div&gt;" style="text;strokeColor=none;fillColor=none;align=left;verticalAlign=top;spacingLeft=4;spacingRight=4;overflow=hidden;rotatable=0;points=[[0,0.5],[1,0.5]];portConstraint=eastwest;whiteSpace=wrap;html=1;" vertex="1" parent="3cJ3J4fkFggetLJPWg2o-0">
          <mxGeometry y="68" width="200" height="52" as="geometry" />
        </mxCell>
        <mxCell id="26xBnhCFgFnMV5GdQ-SK-38" style="edgeStyle=orthogonalEdgeStyle;rounded=0;orthogonalLoop=1;jettySize=auto;html=1;" edge="1" parent="WIyWlLk6GJQsqaUBKTNV-1" source="3cJ3J4fkFggetLJPWg2o-4" target="3cJ3J4fkFggetLJPWg2o-0">
          <mxGeometry relative="1" as="geometry" />
        </mxCell>
        <mxCell id="3cJ3J4fkFggetLJPWg2o-4" value="ChipGeneratorEffect" style="swimlane;fontStyle=1;align=center;verticalAlign=top;childLayout=stackLayout;horizontal=1;startSize=26;horizontalStack=0;resizeParent=1;resizeParentMax=0;resizeLast=0;collapsible=1;marginBottom=0;whiteSpace=wrap;html=1;" vertex="1" parent="WIyWlLk6GJQsqaUBKTNV-1">
          <mxGeometry x="1480" y="598" width="200" height="90" as="geometry" />
        </mxCell>
        <mxCell id="3cJ3J4fkFggetLJPWg2o-5" value="-" style="text;strokeColor=none;fillColor=none;align=left;verticalAlign=top;spacingLeft=4;spacingRight=4;overflow=hidden;rotatable=0;points=[[0,0.5],[1,0.5]];portConstraint=eastwest;whiteSpace=wrap;html=1;" vertex="1" parent="3cJ3J4fkFggetLJPWg2o-4">
          <mxGeometry y="26" width="200" height="24" as="geometry" />
        </mxCell>
        <mxCell id="3cJ3J4fkFggetLJPWg2o-6" value="" style="line;strokeWidth=1;fillColor=none;align=left;verticalAlign=middle;spacingTop=-1;spacingLeft=3;spacingRight=3;rotatable=0;labelPosition=right;points=[];portConstraint=eastwest;strokeColor=inherit;" vertex="1" parent="3cJ3J4fkFggetLJPWg2o-4">
          <mxGeometry y="50" width="200" height="8" as="geometry" />
        </mxCell>
        <mxCell id="3cJ3J4fkFggetLJPWg2o-7" value="&lt;div&gt;&lt;span style=&quot;background-color: transparent; color: light-dark(rgb(0, 0, 0), rgb(255, 255, 255));&quot;&gt;+ OnCharging(float progress): void&lt;/span&gt;&lt;/div&gt;" style="text;strokeColor=none;fillColor=none;align=left;verticalAlign=top;spacingLeft=4;spacingRight=4;overflow=hidden;rotatable=0;points=[[0,0.5],[1,0.5]];portConstraint=eastwest;whiteSpace=wrap;html=1;" vertex="1" parent="3cJ3J4fkFggetLJPWg2o-4">
          <mxGeometry y="58" width="200" height="32" as="geometry" />
        </mxCell>
        <mxCell id="26xBnhCFgFnMV5GdQ-SK-0" style="edgeStyle=orthogonalEdgeStyle;rounded=0;orthogonalLoop=1;jettySize=auto;html=1;exitX=1;exitY=0.5;exitDx=0;exitDy=0;" edge="1" parent="WIyWlLk6GJQsqaUBKTNV-1" source="3o4dioovXkOnNdMlUyPI-21" target="3o4dioovXkOnNdMlUyPI-8">
          <mxGeometry relative="1" as="geometry">
            <Array as="points">
              <mxPoint x="200" y="310" />
            </Array>
          </mxGeometry>
        </mxCell>
        <mxCell id="26xBnhCFgFnMV5GdQ-SK-2" style="edgeStyle=orthogonalEdgeStyle;rounded=0;orthogonalLoop=1;jettySize=auto;html=1;" edge="1" parent="WIyWlLk6GJQsqaUBKTNV-1" source="WkhDi4EtuVTFfCmYv7jr-1" target="z2g_uz5Iai7cVrWeaa7s-25">
          <mxGeometry relative="1" as="geometry">
            <Array as="points">
              <mxPoint x="1240" y="1750" />
              <mxPoint x="1240" y="1750" />
            </Array>
          </mxGeometry>
        </mxCell>
        <mxCell id="26xBnhCFgFnMV5GdQ-SK-16" style="edgeStyle=orthogonalEdgeStyle;rounded=0;orthogonalLoop=1;jettySize=auto;html=1;" edge="1" parent="WIyWlLk6GJQsqaUBKTNV-1" source="26xBnhCFgFnMV5GdQ-SK-9" target="3o4dioovXkOnNdMlUyPI-0">
          <mxGeometry relative="1" as="geometry">
            <Array as="points">
              <mxPoint x="260" y="1140" />
              <mxPoint x="260" y="1140" />
            </Array>
          </mxGeometry>
        </mxCell>
        <mxCell id="26xBnhCFgFnMV5GdQ-SK-3" value="HeroField" style="swimlane;fontStyle=1;align=center;verticalAlign=top;childLayout=stackLayout;horizontal=1;startSize=26;horizontalStack=0;resizeParent=1;resizeParentMax=0;resizeLast=0;collapsible=1;marginBottom=0;whiteSpace=wrap;html=1;" vertex="1" parent="WIyWlLk6GJQsqaUBKTNV-1">
          <mxGeometry x="150" y="1681" width="230" height="98" as="geometry" />
        </mxCell>
        <mxCell id="26xBnhCFgFnMV5GdQ-SK-4" value="&lt;div&gt;- d&lt;span style=&quot;background-color: transparent; color: light-dark(rgb(0, 0, 0), rgb(255, 255, 255));&quot;&gt;raggingHeroLogic:&amp;nbsp;&lt;/span&gt;&lt;span style=&quot;background-color: transparent; color: light-dark(rgb(0, 0, 0), rgb(255, 255, 255));&quot;&gt;DraggingHeroLogic&lt;/span&gt;&lt;/div&gt;&lt;div&gt;&lt;span style=&quot;background-color: transparent; color: light-dark(rgb(0, 0, 0), rgb(255, 255, 255));&quot;&gt;- battleField: BattleField&lt;/span&gt;&lt;/div&gt;" style="text;strokeColor=none;fillColor=none;align=left;verticalAlign=top;spacingLeft=4;spacingRight=4;overflow=hidden;rotatable=0;points=[[0,0.5],[1,0.5]];portConstraint=eastwest;whiteSpace=wrap;html=1;" vertex="1" parent="26xBnhCFgFnMV5GdQ-SK-3">
          <mxGeometry y="26" width="230" height="34" as="geometry" />
        </mxCell>
        <mxCell id="26xBnhCFgFnMV5GdQ-SK-5" value="" style="line;strokeWidth=1;fillColor=none;align=left;verticalAlign=middle;spacingTop=-1;spacingLeft=3;spacingRight=3;rotatable=0;labelPosition=right;points=[];portConstraint=eastwest;strokeColor=inherit;" vertex="1" parent="26xBnhCFgFnMV5GdQ-SK-3">
          <mxGeometry y="60" width="230" height="8" as="geometry" />
        </mxCell>
        <mxCell id="26xBnhCFgFnMV5GdQ-SK-6" value="- Awake(): void" style="text;strokeColor=none;fillColor=none;align=left;verticalAlign=top;spacingLeft=4;spacingRight=4;overflow=hidden;rotatable=0;points=[[0,0.5],[1,0.5]];portConstraint=eastwest;whiteSpace=wrap;html=1;" vertex="1" parent="26xBnhCFgFnMV5GdQ-SK-3">
          <mxGeometry y="68" width="230" height="30" as="geometry" />
        </mxCell>
        <mxCell id="26xBnhCFgFnMV5GdQ-SK-10" value="&lt;div style=&quot;font-weight: 400; text-align: left;&quot;&gt;&lt;span style=&quot;background-color: transparent; color: light-dark(rgb(0, 0, 0), rgb(255, 255, 255));&quot;&gt;DraggingHeroLogic&lt;/span&gt;&lt;/div&gt;" style="swimlane;fontStyle=1;align=center;verticalAlign=top;childLayout=stackLayout;horizontal=1;startSize=26;horizontalStack=0;resizeParent=1;resizeParentMax=0;resizeLast=0;collapsible=1;marginBottom=0;whiteSpace=wrap;html=1;" vertex="1" parent="WIyWlLk6GJQsqaUBKTNV-1">
          <mxGeometry x="400" y="1681" width="220" height="98" as="geometry" />
        </mxCell>
        <mxCell id="26xBnhCFgFnMV5GdQ-SK-11" value="&lt;div&gt;- OnDraggingToBattleField&lt;span style=&quot;background-color: transparent; color: light-dark(rgb(0, 0, 0), rgb(255, 255, 255));&quot;&gt;: Event&lt;/span&gt;&lt;/div&gt;" style="text;strokeColor=none;fillColor=none;align=left;verticalAlign=top;spacingLeft=4;spacingRight=4;overflow=hidden;rotatable=0;points=[[0,0.5],[1,0.5]];portConstraint=eastwest;whiteSpace=wrap;html=1;" vertex="1" parent="26xBnhCFgFnMV5GdQ-SK-10">
          <mxGeometry y="26" width="220" height="34" as="geometry" />
        </mxCell>
        <mxCell id="26xBnhCFgFnMV5GdQ-SK-12" value="" style="line;strokeWidth=1;fillColor=none;align=left;verticalAlign=middle;spacingTop=-1;spacingLeft=3;spacingRight=3;rotatable=0;labelPosition=right;points=[];portConstraint=eastwest;strokeColor=inherit;" vertex="1" parent="26xBnhCFgFnMV5GdQ-SK-10">
          <mxGeometry y="60" width="220" height="8" as="geometry" />
        </mxCell>
        <mxCell id="26xBnhCFgFnMV5GdQ-SK-13" value="+DraggingHero(prevCell,newCell): void" style="text;strokeColor=none;fillColor=none;align=left;verticalAlign=top;spacingLeft=4;spacingRight=4;overflow=hidden;rotatable=0;points=[[0,0.5],[1,0.5]];portConstraint=eastwest;whiteSpace=wrap;html=1;" vertex="1" parent="26xBnhCFgFnMV5GdQ-SK-10">
          <mxGeometry y="68" width="220" height="30" as="geometry" />
        </mxCell>
        <mxCell id="26xBnhCFgFnMV5GdQ-SK-14" style="edgeStyle=orthogonalEdgeStyle;rounded=0;orthogonalLoop=1;jettySize=auto;html=1;" edge="1" parent="WIyWlLk6GJQsqaUBKTNV-1" source="26xBnhCFgFnMV5GdQ-SK-11" target="26xBnhCFgFnMV5GdQ-SK-4">
          <mxGeometry relative="1" as="geometry" />
        </mxCell>
        <mxCell id="26xBnhCFgFnMV5GdQ-SK-17" value="" style="edgeStyle=orthogonalEdgeStyle;rounded=0;orthogonalLoop=1;jettySize=auto;html=1;entryX=0.5;entryY=0.962;entryDx=0;entryDy=0;entryPerimeter=0;" edge="1" parent="WIyWlLk6GJQsqaUBKTNV-1" source="26xBnhCFgFnMV5GdQ-SK-3" target="26xBnhCFgFnMV5GdQ-SK-9">
          <mxGeometry relative="1" as="geometry">
            <mxPoint x="255" y="1430" as="sourcePoint" />
            <mxPoint x="290" y="898" as="targetPoint" />
            <Array as="points">
              <mxPoint x="260" y="1670" />
              <mxPoint x="260" y="1670" />
            </Array>
          </mxGeometry>
        </mxCell>
        <mxCell id="26xBnhCFgFnMV5GdQ-SK-9" value="Extend Field" style="text;align=center;fontStyle=1;verticalAlign=middle;spacingLeft=3;spacingRight=3;strokeColor=none;rotatable=0;points=[[0,0.5],[1,0.5]];portConstraint=eastwest;html=1;" vertex="1" parent="WIyWlLk6GJQsqaUBKTNV-1">
          <mxGeometry x="220" y="1590" width="80" height="26" as="geometry" />
        </mxCell>
        <mxCell id="26xBnhCFgFnMV5GdQ-SK-19" value="" style="edgeStyle=orthogonalEdgeStyle;rounded=0;orthogonalLoop=1;jettySize=auto;html=1;" edge="1" parent="WIyWlLk6GJQsqaUBKTNV-1" source="z2g_uz5Iai7cVrWeaa7s-25" target="WkhDi4EtuVTFfCmYv7jr-8">
          <mxGeometry relative="1" as="geometry">
            <mxPoint x="1410" y="1680" as="sourcePoint" />
            <mxPoint x="1225" y="598" as="targetPoint" />
            <Array as="points">
              <mxPoint x="1410" y="1650" />
              <mxPoint x="1460" y="1650" />
            </Array>
          </mxGeometry>
        </mxCell>
        <mxCell id="WkhDi4EtuVTFfCmYv7jr-8" value="Extend ChipContainer" style="text;align=center;fontStyle=1;verticalAlign=middle;spacingLeft=3;spacingRight=3;strokeColor=none;rotatable=0;points=[[0,0.5],[1,0.5]];portConstraint=eastwest;html=1;" vertex="1" parent="WIyWlLk6GJQsqaUBKTNV-1">
          <mxGeometry x="1400" y="1600" width="130" height="26" as="geometry" />
        </mxCell>
        <mxCell id="26xBnhCFgFnMV5GdQ-SK-20" style="edgeStyle=orthogonalEdgeStyle;rounded=0;orthogonalLoop=1;jettySize=auto;html=1;entryX=0;entryY=0.406;entryDx=0;entryDy=0;entryPerimeter=0;" edge="1" parent="WIyWlLk6GJQsqaUBKTNV-1" source="VM-D98bv77TfouPsAE3m-0" target="3o4dioovXkOnNdMlUyPI-1">
          <mxGeometry relative="1" as="geometry" />
        </mxCell>
        <mxCell id="26xBnhCFgFnMV5GdQ-SK-21" value="FillContainerLogic" style="swimlane;fontStyle=1;align=center;verticalAlign=top;childLayout=stackLayout;horizontal=1;startSize=26;horizontalStack=0;resizeParent=1;resizeParentMax=0;resizeLast=0;collapsible=1;marginBottom=0;whiteSpace=wrap;html=1;" vertex="1" parent="WIyWlLk6GJQsqaUBKTNV-1">
          <mxGeometry x="-135" y="820" width="210" height="56" as="geometry" />
        </mxCell>
        <mxCell id="26xBnhCFgFnMV5GdQ-SK-22" value="&lt;div&gt;+ Fill(draggbleCell, overCell): bool&lt;/div&gt;" style="text;strokeColor=none;fillColor=none;align=left;verticalAlign=top;spacingLeft=4;spacingRight=4;overflow=hidden;rotatable=0;points=[[0,0.5],[1,0.5]];portConstraint=eastwest;whiteSpace=wrap;html=1;" vertex="1" parent="26xBnhCFgFnMV5GdQ-SK-21">
          <mxGeometry y="26" width="210" height="30" as="geometry" />
        </mxCell>
        <mxCell id="26xBnhCFgFnMV5GdQ-SK-23" style="edgeStyle=orthogonalEdgeStyle;rounded=0;orthogonalLoop=1;jettySize=auto;html=1;entryX=0.014;entryY=0.607;entryDx=0;entryDy=0;entryPerimeter=0;" edge="1" parent="WIyWlLk6GJQsqaUBKTNV-1" source="26xBnhCFgFnMV5GdQ-SK-21" target="3o4dioovXkOnNdMlUyPI-1">
          <mxGeometry relative="1" as="geometry" />
        </mxCell>
        <mxCell id="26xBnhCFgFnMV5GdQ-SK-24" value="GeneratorData" style="swimlane;fontStyle=1;align=center;verticalAlign=top;childLayout=stackLayout;horizontal=1;startSize=26;horizontalStack=0;resizeParent=1;resizeParentMax=0;resizeLast=0;collapsible=1;marginBottom=0;whiteSpace=wrap;html=1;" vertex="1" parent="WIyWlLk6GJQsqaUBKTNV-1">
          <mxGeometry x="1070" y="940" width="130" height="70" as="geometry" />
        </mxCell>
        <mxCell id="26xBnhCFgFnMV5GdQ-SK-26" value="+&amp;nbsp;Weight: int&lt;div&gt;+ ChipData: ChipData&lt;/div&gt;" style="text;strokeColor=none;fillColor=none;align=left;verticalAlign=top;spacingLeft=4;spacingRight=4;overflow=hidden;rotatable=0;points=[[0,0.5],[1,0.5]];portConstraint=eastwest;whiteSpace=wrap;html=1;" vertex="1" parent="26xBnhCFgFnMV5GdQ-SK-24">
          <mxGeometry y="26" width="130" height="44" as="geometry" />
        </mxCell>
        <mxCell id="26xBnhCFgFnMV5GdQ-SK-28" value="ContainerData" style="swimlane;fontStyle=1;align=center;verticalAlign=top;childLayout=stackLayout;horizontal=1;startSize=26;horizontalStack=0;resizeParent=1;resizeParentMax=0;resizeLast=0;collapsible=1;marginBottom=0;whiteSpace=wrap;html=1;" vertex="1" parent="WIyWlLk6GJQsqaUBKTNV-1">
          <mxGeometry x="1080" y="1080" width="140" height="80" as="geometry" />
        </mxCell>
        <mxCell id="26xBnhCFgFnMV5GdQ-SK-29" value="+ Type: ContainerType&lt;div&gt;+ TypeOrId: string&lt;/div&gt;&lt;div&gt;+ Count: int&lt;/div&gt;" style="text;strokeColor=none;fillColor=none;align=left;verticalAlign=top;spacingLeft=4;spacingRight=4;overflow=hidden;rotatable=0;points=[[0,0.5],[1,0.5]];portConstraint=eastwest;whiteSpace=wrap;html=1;" vertex="1" parent="26xBnhCFgFnMV5GdQ-SK-28">
          <mxGeometry y="26" width="140" height="54" as="geometry" />
        </mxCell>
        <mxCell id="26xBnhCFgFnMV5GdQ-SK-30" style="edgeStyle=orthogonalEdgeStyle;rounded=0;orthogonalLoop=1;jettySize=auto;html=1;entryX=1.006;entryY=0.251;entryDx=0;entryDy=0;entryPerimeter=0;" edge="1" parent="WIyWlLk6GJQsqaUBKTNV-1" source="26xBnhCFgFnMV5GdQ-SK-28" target="FAmbhVFWqH7xO8f8ccpw-7">
          <mxGeometry relative="1" as="geometry" />
        </mxCell>
        <mxCell id="26xBnhCFgFnMV5GdQ-SK-37" style="edgeStyle=orthogonalEdgeStyle;rounded=0;orthogonalLoop=1;jettySize=auto;html=1;" edge="1" parent="WIyWlLk6GJQsqaUBKTNV-1" source="26xBnhCFgFnMV5GdQ-SK-33" target="3cJ3J4fkFggetLJPWg2o-0">
          <mxGeometry relative="1" as="geometry" />
        </mxCell>
        <mxCell id="26xBnhCFgFnMV5GdQ-SK-33" value="ChipContainerEffect" style="swimlane;fontStyle=1;align=center;verticalAlign=top;childLayout=stackLayout;horizontal=1;startSize=26;horizontalStack=0;resizeParent=1;resizeParentMax=0;resizeLast=0;collapsible=1;marginBottom=0;whiteSpace=wrap;html=1;" vertex="1" parent="WIyWlLk6GJQsqaUBKTNV-1">
          <mxGeometry x="1800" y="598" width="200" height="100" as="geometry" />
        </mxCell>
        <mxCell id="26xBnhCFgFnMV5GdQ-SK-34" value="- animator: Animator" style="text;strokeColor=none;fillColor=none;align=left;verticalAlign=top;spacingLeft=4;spacingRight=4;overflow=hidden;rotatable=0;points=[[0,0.5],[1,0.5]];portConstraint=eastwest;whiteSpace=wrap;html=1;" vertex="1" parent="26xBnhCFgFnMV5GdQ-SK-33">
          <mxGeometry y="26" width="200" height="24" as="geometry" />
        </mxCell>
        <mxCell id="26xBnhCFgFnMV5GdQ-SK-35" value="" style="line;strokeWidth=1;fillColor=none;align=left;verticalAlign=middle;spacingTop=-1;spacingLeft=3;spacingRight=3;rotatable=0;labelPosition=right;points=[];portConstraint=eastwest;strokeColor=inherit;" vertex="1" parent="26xBnhCFgFnMV5GdQ-SK-33">
          <mxGeometry y="50" width="200" height="8" as="geometry" />
        </mxCell>
        <mxCell id="26xBnhCFgFnMV5GdQ-SK-36" value="&lt;div&gt;+ Activete(): void&lt;/div&gt;&lt;div&gt;+ Deactivate(): void&lt;/div&gt;" style="text;strokeColor=none;fillColor=none;align=left;verticalAlign=top;spacingLeft=4;spacingRight=4;overflow=hidden;rotatable=0;points=[[0,0.5],[1,0.5]];portConstraint=eastwest;whiteSpace=wrap;html=1;" vertex="1" parent="26xBnhCFgFnMV5GdQ-SK-33">
          <mxGeometry y="58" width="200" height="42" as="geometry" />
        </mxCell>
        <mxCell id="26xBnhCFgFnMV5GdQ-SK-39" style="edgeStyle=orthogonalEdgeStyle;rounded=0;orthogonalLoop=1;jettySize=auto;html=1;" edge="1" parent="WIyWlLk6GJQsqaUBKTNV-1" source="26xBnhCFgFnMV5GdQ-SK-26" target="FAmbhVFWqH7xO8f8ccpw-4">
          <mxGeometry relative="1" as="geometry">
            <Array as="points">
              <mxPoint x="1050" y="988" />
              <mxPoint x="1050" y="960" />
            </Array>
          </mxGeometry>
        </mxCell>
        <mxCell id="wb0kyCcmuDkZpGRQQZ2E-26" style="edgeStyle=orthogonalEdgeStyle;rounded=0;orthogonalLoop=1;jettySize=auto;html=1;" edge="1" parent="WIyWlLk6GJQsqaUBKTNV-1" source="wb0kyCcmuDkZpGRQQZ2E-0" target="26xBnhCFgFnMV5GdQ-SK-4">
          <mxGeometry relative="1" as="geometry">
            <Array as="points">
              <mxPoint x="130" y="1740" />
            </Array>
          </mxGeometry>
        </mxCell>
        <mxCell id="wb0kyCcmuDkZpGRQQZ2E-0" value="BattleField" style="swimlane;fontStyle=1;align=center;verticalAlign=top;childLayout=stackLayout;horizontal=1;startSize=26;horizontalStack=0;resizeParent=1;resizeParentMax=0;resizeLast=0;collapsible=1;marginBottom=0;whiteSpace=wrap;html=1;" vertex="1" parent="WIyWlLk6GJQsqaUBKTNV-1">
          <mxGeometry x="-80" y="2110" width="460" height="210" as="geometry" />
        </mxCell>
        <mxCell id="wb0kyCcmuDkZpGRQQZ2E-1" value="&lt;div&gt;- grid: BattleGrid&lt;/div&gt;&lt;div&gt;- heroes: List&amp;lt;BattleUnit&amp;gt;&lt;/div&gt;&lt;div&gt;- enemies: List&amp;lt;BattleUnit&amp;gt;&lt;/div&gt;&lt;div&gt;- enemySpawner: BattleFieldEnemySpawner&lt;/div&gt;&lt;div&gt;&lt;br&gt;&lt;/div&gt;" style="text;strokeColor=none;fillColor=none;align=left;verticalAlign=top;spacingLeft=4;spacingRight=4;overflow=hidden;rotatable=0;points=[[0,0.5],[1,0.5]];portConstraint=eastwest;whiteSpace=wrap;html=1;" vertex="1" parent="wb0kyCcmuDkZpGRQQZ2E-0">
          <mxGeometry y="26" width="460" height="84" as="geometry" />
        </mxCell>
        <mxCell id="wb0kyCcmuDkZpGRQQZ2E-2" value="" style="line;strokeWidth=1;fillColor=none;align=left;verticalAlign=middle;spacingTop=-1;spacingLeft=3;spacingRight=3;rotatable=0;labelPosition=right;points=[];portConstraint=eastwest;strokeColor=inherit;" vertex="1" parent="wb0kyCcmuDkZpGRQQZ2E-0">
          <mxGeometry y="110" width="460" height="8" as="geometry" />
        </mxCell>
        <mxCell id="wb0kyCcmuDkZpGRQQZ2E-3" value="- OnDraggedHeroToBattleField(BattleCharacterStyle style, EquipmentItem[] items)&lt;div&gt;- CreateUnit(prefab, style, items, isHero, spawnPoint) : BattleUnit&lt;/div&gt;&lt;div&gt;&lt;div&gt;-&amp;nbsp;FindPathToUnitAttackPosition(unitCell, targetCell, Action&amp;lt;List&amp;lt;BattleCell&amp;gt;&amp;gt;) : void&lt;/div&gt;&lt;div&gt;-&lt;span style=&quot;background-color: transparent; color: light-dark(rgb(0, 0, 0), rgb(255, 255, 255));&quot;&gt;&amp;nbsp;FindPathToCell(unitCell, targetCell, Action&amp;lt;List&amp;lt;BattleCell&amp;gt;&amp;gt;) : void&lt;/span&gt;&lt;/div&gt;&lt;div&gt;-&amp;nbsp;OnUnitDead(BattleUnit unit): void&lt;/div&gt;&lt;/div&gt;" style="text;strokeColor=none;fillColor=none;align=left;verticalAlign=top;spacingLeft=4;spacingRight=4;overflow=hidden;rotatable=0;points=[[0,0.5],[1,0.5]];portConstraint=eastwest;whiteSpace=wrap;html=1;" vertex="1" parent="wb0kyCcmuDkZpGRQQZ2E-0">
          <mxGeometry y="118" width="460" height="92" as="geometry" />
        </mxCell>
        <mxCell id="wb0kyCcmuDkZpGRQQZ2E-8" style="edgeStyle=orthogonalEdgeStyle;rounded=0;orthogonalLoop=1;jettySize=auto;html=1;" edge="1" parent="WIyWlLk6GJQsqaUBKTNV-1" source="wb0kyCcmuDkZpGRQQZ2E-4" target="WkhDi4EtuVTFfCmYv7jr-1">
          <mxGeometry relative="1" as="geometry">
            <Array as="points">
              <mxPoint x="830" y="1753" />
              <mxPoint x="830" y="1753" />
            </Array>
          </mxGeometry>
        </mxCell>
        <mxCell id="wb0kyCcmuDkZpGRQQZ2E-4" value="HeroDataBase.Data" style="swimlane;fontStyle=1;align=center;verticalAlign=top;childLayout=stackLayout;horizontal=1;startSize=26;horizontalStack=0;resizeParent=1;resizeParentMax=0;resizeLast=0;collapsible=1;marginBottom=0;whiteSpace=wrap;html=1;" vertex="1" parent="WIyWlLk6GJQsqaUBKTNV-1">
          <mxGeometry x="740" y="1719" width="200" height="70" as="geometry" />
        </mxCell>
        <mxCell id="wb0kyCcmuDkZpGRQQZ2E-5" value="+ ChipData: ChipData&lt;div&gt;+ EquipmentItem: EquipmentItem&lt;/div&gt;" style="text;strokeColor=none;fillColor=none;align=left;verticalAlign=top;spacingLeft=4;spacingRight=4;overflow=hidden;rotatable=0;points=[[0,0.5],[1,0.5]];portConstraint=eastwest;whiteSpace=wrap;html=1;" vertex="1" parent="wb0kyCcmuDkZpGRQQZ2E-4">
          <mxGeometry y="26" width="200" height="44" as="geometry" />
        </mxCell>
        <mxCell id="wb0kyCcmuDkZpGRQQZ2E-11" style="edgeStyle=orthogonalEdgeStyle;rounded=0;orthogonalLoop=1;jettySize=auto;html=1;" edge="1" parent="WIyWlLk6GJQsqaUBKTNV-1" source="wb0kyCcmuDkZpGRQQZ2E-9" target="wb0kyCcmuDkZpGRQQZ2E-5">
          <mxGeometry relative="1" as="geometry">
            <Array as="points">
              <mxPoint x="840" y="2000" />
              <mxPoint x="710" y="2000" />
              <mxPoint x="710" y="1767" />
            </Array>
          </mxGeometry>
        </mxCell>
        <mxCell id="wb0kyCcmuDkZpGRQQZ2E-9" value="EquipmentItem" style="swimlane;fontStyle=1;align=center;verticalAlign=top;childLayout=stackLayout;horizontal=1;startSize=26;horizontalStack=0;resizeParent=1;resizeParentMax=0;resizeLast=0;collapsible=1;marginBottom=0;whiteSpace=wrap;html=1;" vertex="1" parent="WIyWlLk6GJQsqaUBKTNV-1">
          <mxGeometry x="740" y="2070" width="200" height="70" as="geometry" />
        </mxCell>
        <mxCell id="wb0kyCcmuDkZpGRQQZ2E-10" value="+ ItemId: string&lt;div&gt;+ EquipmentPart: EquipmentPart&lt;/div&gt;" style="text;strokeColor=none;fillColor=none;align=left;verticalAlign=top;spacingLeft=4;spacingRight=4;overflow=hidden;rotatable=0;points=[[0,0.5],[1,0.5]];portConstraint=eastwest;whiteSpace=wrap;html=1;" vertex="1" parent="wb0kyCcmuDkZpGRQQZ2E-9">
          <mxGeometry y="26" width="200" height="44" as="geometry" />
        </mxCell>
        <mxCell id="wb0kyCcmuDkZpGRQQZ2E-21" style="edgeStyle=orthogonalEdgeStyle;rounded=0;orthogonalLoop=1;jettySize=auto;html=1;" edge="1" parent="WIyWlLk6GJQsqaUBKTNV-1" source="wb0kyCcmuDkZpGRQQZ2E-13" target="wb0kyCcmuDkZpGRQQZ2E-9">
          <mxGeometry relative="1" as="geometry">
            <Array as="points">
              <mxPoint x="515" y="2170" />
              <mxPoint x="840" y="2170" />
            </Array>
          </mxGeometry>
        </mxCell>
        <mxCell id="wb0kyCcmuDkZpGRQQZ2E-13" value="EquipmentArmorItem" style="swimlane;fontStyle=1;align=center;verticalAlign=top;childLayout=stackLayout;horizontal=1;startSize=26;horizontalStack=0;resizeParent=1;resizeParentMax=0;resizeLast=0;collapsible=1;marginBottom=0;whiteSpace=wrap;html=1;" vertex="1" parent="WIyWlLk6GJQsqaUBKTNV-1">
          <mxGeometry x="415" y="2210" width="200" height="60" as="geometry" />
        </mxCell>
        <mxCell id="wb0kyCcmuDkZpGRQQZ2E-14" value="+ Defense: int" style="text;strokeColor=none;fillColor=none;align=left;verticalAlign=top;spacingLeft=4;spacingRight=4;overflow=hidden;rotatable=0;points=[[0,0.5],[1,0.5]];portConstraint=eastwest;whiteSpace=wrap;html=1;" vertex="1" parent="wb0kyCcmuDkZpGRQQZ2E-13">
          <mxGeometry y="26" width="200" height="34" as="geometry" />
        </mxCell>
        <mxCell id="wb0kyCcmuDkZpGRQQZ2E-22" style="edgeStyle=orthogonalEdgeStyle;rounded=0;orthogonalLoop=1;jettySize=auto;html=1;" edge="1" parent="WIyWlLk6GJQsqaUBKTNV-1" source="wb0kyCcmuDkZpGRQQZ2E-15" target="wb0kyCcmuDkZpGRQQZ2E-9">
          <mxGeometry relative="1" as="geometry">
            <Array as="points">
              <mxPoint x="732" y="2170" />
              <mxPoint x="840" y="2170" />
            </Array>
          </mxGeometry>
        </mxCell>
        <mxCell id="wb0kyCcmuDkZpGRQQZ2E-15" value="EquipmentWeaponItem" style="swimlane;fontStyle=1;align=center;verticalAlign=top;childLayout=stackLayout;horizontal=1;startSize=26;horizontalStack=0;resizeParent=1;resizeParentMax=0;resizeLast=0;collapsible=1;marginBottom=0;whiteSpace=wrap;html=1;" vertex="1" parent="WIyWlLk6GJQsqaUBKTNV-1">
          <mxGeometry x="632" y="2210" width="200" height="70" as="geometry" />
        </mxCell>
        <mxCell id="wb0kyCcmuDkZpGRQQZ2E-16" value="+&amp;nbsp;MinAttackDamage: int&lt;div&gt;+ MaxAttackDamage: int&lt;/div&gt;" style="text;strokeColor=none;fillColor=none;align=left;verticalAlign=top;spacingLeft=4;spacingRight=4;overflow=hidden;rotatable=0;points=[[0,0.5],[1,0.5]];portConstraint=eastwest;whiteSpace=wrap;html=1;" vertex="1" parent="wb0kyCcmuDkZpGRQQZ2E-15">
          <mxGeometry y="26" width="200" height="44" as="geometry" />
        </mxCell>
        <mxCell id="wb0kyCcmuDkZpGRQQZ2E-23" style="edgeStyle=orthogonalEdgeStyle;rounded=0;orthogonalLoop=1;jettySize=auto;html=1;" edge="1" parent="WIyWlLk6GJQsqaUBKTNV-1" source="wb0kyCcmuDkZpGRQQZ2E-17" target="wb0kyCcmuDkZpGRQQZ2E-9">
          <mxGeometry relative="1" as="geometry">
            <Array as="points">
              <mxPoint x="950" y="2170" />
              <mxPoint x="840" y="2170" />
            </Array>
          </mxGeometry>
        </mxCell>
        <mxCell id="wb0kyCcmuDkZpGRQQZ2E-17" value="EquipmentShieldItem" style="swimlane;fontStyle=1;align=center;verticalAlign=top;childLayout=stackLayout;horizontal=1;startSize=26;horizontalStack=0;resizeParent=1;resizeParentMax=0;resizeLast=0;collapsible=1;marginBottom=0;whiteSpace=wrap;html=1;" vertex="1" parent="WIyWlLk6GJQsqaUBKTNV-1">
          <mxGeometry x="850" y="2210" width="200" height="60" as="geometry" />
        </mxCell>
        <mxCell id="wb0kyCcmuDkZpGRQQZ2E-18" value="+&amp;nbsp;ChanceBlockDamage: int" style="text;strokeColor=none;fillColor=none;align=left;verticalAlign=top;spacingLeft=4;spacingRight=4;overflow=hidden;rotatable=0;points=[[0,0.5],[1,0.5]];portConstraint=eastwest;whiteSpace=wrap;html=1;" vertex="1" parent="wb0kyCcmuDkZpGRQQZ2E-17">
          <mxGeometry y="26" width="200" height="34" as="geometry" />
        </mxCell>
        <mxCell id="wb0kyCcmuDkZpGRQQZ2E-24" style="edgeStyle=orthogonalEdgeStyle;rounded=0;orthogonalLoop=1;jettySize=auto;html=1;" edge="1" parent="WIyWlLk6GJQsqaUBKTNV-1" source="wb0kyCcmuDkZpGRQQZ2E-19" target="wb0kyCcmuDkZpGRQQZ2E-9">
          <mxGeometry relative="1" as="geometry">
            <Array as="points">
              <mxPoint x="1165" y="2170" />
              <mxPoint x="840" y="2170" />
            </Array>
          </mxGeometry>
        </mxCell>
        <mxCell id="wb0kyCcmuDkZpGRQQZ2E-19" value="EquipmentHelmetItem" style="swimlane;fontStyle=1;align=center;verticalAlign=top;childLayout=stackLayout;horizontal=1;startSize=26;horizontalStack=0;resizeParent=1;resizeParentMax=0;resizeLast=0;collapsible=1;marginBottom=0;whiteSpace=wrap;html=1;" vertex="1" parent="WIyWlLk6GJQsqaUBKTNV-1">
          <mxGeometry x="1065" y="2210" width="200" height="60" as="geometry" />
        </mxCell>
        <mxCell id="wb0kyCcmuDkZpGRQQZ2E-20" value="+&amp;nbsp;MinusChanceCrit: int" style="text;strokeColor=none;fillColor=none;align=left;verticalAlign=top;spacingLeft=4;spacingRight=4;overflow=hidden;rotatable=0;points=[[0,0.5],[1,0.5]];portConstraint=eastwest;whiteSpace=wrap;html=1;" vertex="1" parent="wb0kyCcmuDkZpGRQQZ2E-19">
          <mxGeometry y="26" width="200" height="34" as="geometry" />
        </mxCell>
        <mxCell id="wb0kyCcmuDkZpGRQQZ2E-25" value="&lt;b&gt;&lt;font style=&quot;font-size: 14px;&quot;&gt;Extends&lt;/font&gt;&lt;/b&gt;" style="text;html=1;align=center;verticalAlign=middle;resizable=0;points=[];autosize=1;strokeColor=none;fillColor=none;" vertex="1" parent="WIyWlLk6GJQsqaUBKTNV-1">
          <mxGeometry x="805" y="2170" width="80" height="30" as="geometry" />
        </mxCell>
        <mxCell id="wb0kyCcmuDkZpGRQQZ2E-31" style="edgeStyle=orthogonalEdgeStyle;rounded=0;orthogonalLoop=1;jettySize=auto;html=1;" edge="1" parent="WIyWlLk6GJQsqaUBKTNV-1" source="wb0kyCcmuDkZpGRQQZ2E-27" target="wb0kyCcmuDkZpGRQQZ2E-1">
          <mxGeometry relative="1" as="geometry">
            <Array as="points">
              <mxPoint x="90" y="2420" />
              <mxPoint x="-100" y="2420" />
              <mxPoint x="-100" y="2170" />
            </Array>
          </mxGeometry>
        </mxCell>
        <mxCell id="wb0kyCcmuDkZpGRQQZ2E-27" value="BattleUnit" style="swimlane;fontStyle=1;align=center;verticalAlign=top;childLayout=stackLayout;horizontal=1;startSize=26;horizontalStack=0;resizeParent=1;resizeParentMax=0;resizeLast=0;collapsible=1;marginBottom=0;whiteSpace=wrap;html=1;" vertex="1" parent="WIyWlLk6GJQsqaUBKTNV-1">
          <mxGeometry x="35" y="2370" width="230" height="290" as="geometry" />
        </mxCell>
        <mxCell id="wb0kyCcmuDkZpGRQQZ2E-28" value="&lt;div&gt;+ character: Character&lt;/div&gt;&lt;div&gt;+ strategy: BattleUnitAbstractStrategy&lt;/div&gt;&lt;div&gt;+ IsHero: bool&lt;/div&gt;&lt;div&gt;+ OnUnitDeadEvent: Event&lt;/div&gt;&lt;div&gt;+ IsMoving: bool&lt;/div&gt;&lt;div&gt;+ IsAttacking: bool&lt;/div&gt;+ IsAttackReady: bool&lt;div&gt;+ IsStuning: bool&lt;/div&gt;&lt;div&gt;+ NeedTimeToReady: bool&lt;br&gt;&lt;/div&gt;&lt;div&gt;+&amp;nbsp;IsDodgeRolling: bool&lt;/div&gt;&lt;div&gt;&lt;/div&gt;- unitStats: BattleUnitStats" style="text;strokeColor=none;fillColor=none;align=left;verticalAlign=top;spacingLeft=4;spacingRight=4;overflow=hidden;rotatable=0;points=[[0,0.5],[1,0.5]];portConstraint=eastwest;whiteSpace=wrap;html=1;" vertex="1" parent="wb0kyCcmuDkZpGRQQZ2E-27">
          <mxGeometry y="26" width="230" height="174" as="geometry" />
        </mxCell>
        <mxCell id="wb0kyCcmuDkZpGRQQZ2E-29" value="" style="line;strokeWidth=1;fillColor=none;align=left;verticalAlign=middle;spacingTop=-1;spacingLeft=3;spacingRight=3;rotatable=0;labelPosition=right;points=[];portConstraint=eastwest;strokeColor=inherit;" vertex="1" parent="wb0kyCcmuDkZpGRQQZ2E-27">
          <mxGeometry y="200" width="230" height="8" as="geometry" />
        </mxCell>
        <mxCell id="wb0kyCcmuDkZpGRQQZ2E-30" value="-" style="text;strokeColor=none;fillColor=none;align=left;verticalAlign=top;spacingLeft=4;spacingRight=4;overflow=hidden;rotatable=0;points=[[0,0.5],[1,0.5]];portConstraint=eastwest;whiteSpace=wrap;html=1;" vertex="1" parent="wb0kyCcmuDkZpGRQQZ2E-27">
          <mxGeometry y="208" width="230" height="82" as="geometry" />
        </mxCell>
        <mxCell id="8QcNrkNuKidk-mNTcDju-0" style="edgeStyle=orthogonalEdgeStyle;rounded=0;orthogonalLoop=1;jettySize=auto;html=1;" edge="1" parent="WIyWlLk6GJQsqaUBKTNV-1" source="wb0kyCcmuDkZpGRQQZ2E-32" target="wb0kyCcmuDkZpGRQQZ2E-27">
          <mxGeometry relative="1" as="geometry" />
        </mxCell>
        <mxCell id="wb0kyCcmuDkZpGRQQZ2E-32" value="BattleUnitAbstractStrategy" style="swimlane;fontStyle=1;align=center;verticalAlign=top;childLayout=stackLayout;horizontal=1;startSize=26;horizontalStack=0;resizeParent=1;resizeParentMax=0;resizeLast=0;collapsible=1;marginBottom=0;whiteSpace=wrap;html=1;" vertex="1" parent="WIyWlLk6GJQsqaUBKTNV-1">
          <mxGeometry x="400" y="2338" width="200" height="170" as="geometry" />
        </mxCell>
        <mxCell id="wb0kyCcmuDkZpGRQQZ2E-33" value="&lt;div&gt;+ Unit: BattleUnit&lt;/div&gt;&lt;div&gt;+ Target: BattleUnit&lt;/div&gt;&lt;div&gt;+ Attackers: BattleUnit&lt;/div&gt;&lt;div&gt;+ Followers: BattleUnit&lt;/div&gt;&lt;div&gt;+&amp;nbsp;Mover:&amp;nbsp;BattleUnitMover&lt;/div&gt;&lt;div&gt;- actions: BattleUnitAction&lt;/div&gt;" style="text;strokeColor=none;fillColor=none;align=left;verticalAlign=top;spacingLeft=4;spacingRight=4;overflow=hidden;rotatable=0;points=[[0,0.5],[1,0.5]];portConstraint=eastwest;whiteSpace=wrap;html=1;" vertex="1" parent="wb0kyCcmuDkZpGRQQZ2E-32">
          <mxGeometry y="26" width="200" height="110" as="geometry" />
        </mxCell>
        <mxCell id="wb0kyCcmuDkZpGRQQZ2E-34" value="" style="line;strokeWidth=1;fillColor=none;align=left;verticalAlign=middle;spacingTop=-1;spacingLeft=3;spacingRight=3;rotatable=0;labelPosition=right;points=[];portConstraint=eastwest;strokeColor=inherit;" vertex="1" parent="wb0kyCcmuDkZpGRQQZ2E-32">
          <mxGeometry y="136" width="200" height="8" as="geometry" />
        </mxCell>
        <mxCell id="wb0kyCcmuDkZpGRQQZ2E-35" value="-" style="text;strokeColor=none;fillColor=none;align=left;verticalAlign=top;spacingLeft=4;spacingRight=4;overflow=hidden;rotatable=0;points=[[0,0.5],[1,0.5]];portConstraint=eastwest;whiteSpace=wrap;html=1;" vertex="1" parent="wb0kyCcmuDkZpGRQQZ2E-32">
          <mxGeometry y="144" width="200" height="26" as="geometry" />
        </mxCell>
        <mxCell id="8QcNrkNuKidk-mNTcDju-1" style="edgeStyle=orthogonalEdgeStyle;rounded=0;orthogonalLoop=1;jettySize=auto;html=1;" edge="1" parent="WIyWlLk6GJQsqaUBKTNV-1" source="3UoFlUUx_JSC1___CWdV-0" target="wb0kyCcmuDkZpGRQQZ2E-32">
          <mxGeometry relative="1" as="geometry" />
        </mxCell>
        <mxCell id="3UoFlUUx_JSC1___CWdV-0" value="BattleUnitBowStrategy" style="swimlane;fontStyle=1;align=center;verticalAlign=top;childLayout=stackLayout;horizontal=1;startSize=26;horizontalStack=0;resizeParent=1;resizeParentMax=0;resizeLast=0;collapsible=1;marginBottom=0;whiteSpace=wrap;html=1;" vertex="1" parent="WIyWlLk6GJQsqaUBKTNV-1">
          <mxGeometry x="240" y="2720" width="230" height="170" as="geometry" />
        </mxCell>
        <mxCell id="3UoFlUUx_JSC1___CWdV-1" value="&lt;div&gt;-&amp;nbsp;&lt;/div&gt;" style="text;strokeColor=none;fillColor=none;align=left;verticalAlign=top;spacingLeft=4;spacingRight=4;overflow=hidden;rotatable=0;points=[[0,0.5],[1,0.5]];portConstraint=eastwest;whiteSpace=wrap;html=1;" vertex="1" parent="3UoFlUUx_JSC1___CWdV-0">
          <mxGeometry y="26" width="230" height="54" as="geometry" />
        </mxCell>
        <mxCell id="3UoFlUUx_JSC1___CWdV-2" value="" style="line;strokeWidth=1;fillColor=none;align=left;verticalAlign=middle;spacingTop=-1;spacingLeft=3;spacingRight=3;rotatable=0;labelPosition=right;points=[];portConstraint=eastwest;strokeColor=inherit;" vertex="1" parent="3UoFlUUx_JSC1___CWdV-0">
          <mxGeometry y="80" width="230" height="8" as="geometry" />
        </mxCell>
        <mxCell id="3UoFlUUx_JSC1___CWdV-3" value="-" style="text;strokeColor=none;fillColor=none;align=left;verticalAlign=top;spacingLeft=4;spacingRight=4;overflow=hidden;rotatable=0;points=[[0,0.5],[1,0.5]];portConstraint=eastwest;whiteSpace=wrap;html=1;" vertex="1" parent="3UoFlUUx_JSC1___CWdV-0">
          <mxGeometry y="88" width="230" height="82" as="geometry" />
        </mxCell>
        <mxCell id="8QcNrkNuKidk-mNTcDju-2" style="edgeStyle=orthogonalEdgeStyle;rounded=0;orthogonalLoop=1;jettySize=auto;html=1;" edge="1" parent="WIyWlLk6GJQsqaUBKTNV-1" source="3UoFlUUx_JSC1___CWdV-4" target="wb0kyCcmuDkZpGRQQZ2E-32">
          <mxGeometry relative="1" as="geometry" />
        </mxCell>
        <mxCell id="3UoFlUUx_JSC1___CWdV-4" value="BattleUnitShieldStrategy" style="swimlane;fontStyle=1;align=center;verticalAlign=top;childLayout=stackLayout;horizontal=1;startSize=26;horizontalStack=0;resizeParent=1;resizeParentMax=0;resizeLast=0;collapsible=1;marginBottom=0;whiteSpace=wrap;html=1;" vertex="1" parent="WIyWlLk6GJQsqaUBKTNV-1">
          <mxGeometry x="530" y="2720" width="230" height="170" as="geometry" />
        </mxCell>
        <mxCell id="3UoFlUUx_JSC1___CWdV-5" value="&lt;div&gt;-&amp;nbsp;&lt;/div&gt;" style="text;strokeColor=none;fillColor=none;align=left;verticalAlign=top;spacingLeft=4;spacingRight=4;overflow=hidden;rotatable=0;points=[[0,0.5],[1,0.5]];portConstraint=eastwest;whiteSpace=wrap;html=1;" vertex="1" parent="3UoFlUUx_JSC1___CWdV-4">
          <mxGeometry y="26" width="230" height="54" as="geometry" />
        </mxCell>
        <mxCell id="3UoFlUUx_JSC1___CWdV-6" value="" style="line;strokeWidth=1;fillColor=none;align=left;verticalAlign=middle;spacingTop=-1;spacingLeft=3;spacingRight=3;rotatable=0;labelPosition=right;points=[];portConstraint=eastwest;strokeColor=inherit;" vertex="1" parent="3UoFlUUx_JSC1___CWdV-4">
          <mxGeometry y="80" width="230" height="8" as="geometry" />
        </mxCell>
        <mxCell id="3UoFlUUx_JSC1___CWdV-7" value="-" style="text;strokeColor=none;fillColor=none;align=left;verticalAlign=top;spacingLeft=4;spacingRight=4;overflow=hidden;rotatable=0;points=[[0,0.5],[1,0.5]];portConstraint=eastwest;whiteSpace=wrap;html=1;" vertex="1" parent="3UoFlUUx_JSC1___CWdV-4">
          <mxGeometry y="88" width="230" height="82" as="geometry" />
        </mxCell>
        <mxCell id="ZP3sWCU-0mf8NaV6JF5G-0" value="Namespace&lt;div&gt;BattleField&lt;/div&gt;" style="shape=umlFrame;whiteSpace=wrap;html=1;pointerEvents=0;width=175;height=80;" vertex="1" parent="WIyWlLk6GJQsqaUBKTNV-1">
          <mxGeometry x="-280" y="2030" width="1910" height="1020" as="geometry" />
        </mxCell>
        <mxCell id="8QcNrkNuKidk-mNTcDju-3" value="&lt;b&gt;Extends&lt;/b&gt;" style="text;html=1;align=center;verticalAlign=middle;resizable=0;points=[];autosize=1;strokeColor=none;fillColor=none;" vertex="1" parent="WIyWlLk6GJQsqaUBKTNV-1">
          <mxGeometry x="465" y="2658" width="70" height="30" as="geometry" />
        </mxCell>
        <mxCell id="8QcNrkNuKidk-mNTcDju-8" style="edgeStyle=orthogonalEdgeStyle;rounded=0;orthogonalLoop=1;jettySize=auto;html=1;entryX=1;entryY=0.5;entryDx=0;entryDy=0;" edge="1" parent="WIyWlLk6GJQsqaUBKTNV-1" source="8QcNrkNuKidk-mNTcDju-4" target="wb0kyCcmuDkZpGRQQZ2E-33">
          <mxGeometry relative="1" as="geometry" />
        </mxCell>
        <mxCell id="8QcNrkNuKidk-mNTcDju-4" value="BattleUnitAbstractAction" style="swimlane;fontStyle=1;align=center;verticalAlign=top;childLayout=stackLayout;horizontal=1;startSize=26;horizontalStack=0;resizeParent=1;resizeParentMax=0;resizeLast=0;collapsible=1;marginBottom=0;whiteSpace=wrap;html=1;" vertex="1" parent="WIyWlLk6GJQsqaUBKTNV-1">
          <mxGeometry x="690" y="2354" width="230" height="130" as="geometry" />
        </mxCell>
        <mxCell id="8QcNrkNuKidk-mNTcDju-5" value="&lt;div&gt;- strategy: BattleUnitAbstractStrategy&lt;/div&gt;&lt;div&gt;&lt;br&gt;&lt;/div&gt;" style="text;strokeColor=none;fillColor=none;align=left;verticalAlign=top;spacingLeft=4;spacingRight=4;overflow=hidden;rotatable=0;points=[[0,0.5],[1,0.5]];portConstraint=eastwest;whiteSpace=wrap;html=1;" vertex="1" parent="8QcNrkNuKidk-mNTcDju-4">
          <mxGeometry y="26" width="230" height="34" as="geometry" />
        </mxCell>
        <mxCell id="8QcNrkNuKidk-mNTcDju-6" value="" style="line;strokeWidth=1;fillColor=none;align=left;verticalAlign=middle;spacingTop=-1;spacingLeft=3;spacingRight=3;rotatable=0;labelPosition=right;points=[];portConstraint=eastwest;strokeColor=inherit;" vertex="1" parent="8QcNrkNuKidk-mNTcDju-4">
          <mxGeometry y="60" width="230" height="8" as="geometry" />
        </mxCell>
        <mxCell id="8QcNrkNuKidk-mNTcDju-7" value="+ Action(): bool&lt;div&gt;+ Update(): void&lt;/div&gt;&lt;div&gt;+ LateUpdate(): void&lt;/div&gt;" style="text;strokeColor=none;fillColor=none;align=left;verticalAlign=top;spacingLeft=4;spacingRight=4;overflow=hidden;rotatable=0;points=[[0,0.5],[1,0.5]];portConstraint=eastwest;whiteSpace=wrap;html=1;" vertex="1" parent="8QcNrkNuKidk-mNTcDju-4">
          <mxGeometry y="68" width="230" height="62" as="geometry" />
        </mxCell>
        <mxCell id="8QcNrkNuKidk-mNTcDju-25" value="BattleUnitAction_HeroMessages" style="swimlane;fontStyle=1;align=center;verticalAlign=top;childLayout=stackLayout;horizontal=1;startSize=26;horizontalStack=0;resizeParent=1;resizeParentMax=0;resizeLast=0;collapsible=1;marginBottom=0;whiteSpace=wrap;html=1;" vertex="1" parent="WIyWlLk6GJQsqaUBKTNV-1">
          <mxGeometry x="1330" y="2883" width="230" height="80" as="geometry" />
        </mxCell>
        <mxCell id="8QcNrkNuKidk-mNTcDju-26" value="&lt;div&gt;-&amp;nbsp;&lt;/div&gt;" style="text;strokeColor=none;fillColor=none;align=left;verticalAlign=top;spacingLeft=4;spacingRight=4;overflow=hidden;rotatable=0;points=[[0,0.5],[1,0.5]];portConstraint=eastwest;whiteSpace=wrap;html=1;" vertex="1" parent="8QcNrkNuKidk-mNTcDju-25">
          <mxGeometry y="26" width="230" height="24" as="geometry" />
        </mxCell>
        <mxCell id="8QcNrkNuKidk-mNTcDju-27" value="" style="line;strokeWidth=1;fillColor=none;align=left;verticalAlign=middle;spacingTop=-1;spacingLeft=3;spacingRight=3;rotatable=0;labelPosition=right;points=[];portConstraint=eastwest;strokeColor=inherit;" vertex="1" parent="8QcNrkNuKidk-mNTcDju-25">
          <mxGeometry y="50" width="230" height="8" as="geometry" />
        </mxCell>
        <mxCell id="8QcNrkNuKidk-mNTcDju-28" value="-&amp;nbsp;" style="text;strokeColor=none;fillColor=none;align=left;verticalAlign=top;spacingLeft=4;spacingRight=4;overflow=hidden;rotatable=0;points=[[0,0.5],[1,0.5]];portConstraint=eastwest;whiteSpace=wrap;html=1;" vertex="1" parent="8QcNrkNuKidk-mNTcDju-25">
          <mxGeometry y="58" width="230" height="22" as="geometry" />
        </mxCell>
        <mxCell id="8QcNrkNuKidk-mNTcDju-29" value="BattleUnitAction_Retreat" style="swimlane;fontStyle=1;align=center;verticalAlign=top;childLayout=stackLayout;horizontal=1;startSize=26;horizontalStack=0;resizeParent=1;resizeParentMax=0;resizeLast=0;collapsible=1;marginBottom=0;whiteSpace=wrap;html=1;" vertex="1" parent="WIyWlLk6GJQsqaUBKTNV-1">
          <mxGeometry x="1080" y="2883" width="230" height="80" as="geometry" />
        </mxCell>
        <mxCell id="8QcNrkNuKidk-mNTcDju-30" value="&lt;div&gt;-&amp;nbsp;&lt;/div&gt;" style="text;strokeColor=none;fillColor=none;align=left;verticalAlign=top;spacingLeft=4;spacingRight=4;overflow=hidden;rotatable=0;points=[[0,0.5],[1,0.5]];portConstraint=eastwest;whiteSpace=wrap;html=1;" vertex="1" parent="8QcNrkNuKidk-mNTcDju-29">
          <mxGeometry y="26" width="230" height="24" as="geometry" />
        </mxCell>
        <mxCell id="8QcNrkNuKidk-mNTcDju-31" value="" style="line;strokeWidth=1;fillColor=none;align=left;verticalAlign=middle;spacingTop=-1;spacingLeft=3;spacingRight=3;rotatable=0;labelPosition=right;points=[];portConstraint=eastwest;strokeColor=inherit;" vertex="1" parent="8QcNrkNuKidk-mNTcDju-29">
          <mxGeometry y="50" width="230" height="8" as="geometry" />
        </mxCell>
        <mxCell id="8QcNrkNuKidk-mNTcDju-32" value="-&amp;nbsp;" style="text;strokeColor=none;fillColor=none;align=left;verticalAlign=top;spacingLeft=4;spacingRight=4;overflow=hidden;rotatable=0;points=[[0,0.5],[1,0.5]];portConstraint=eastwest;whiteSpace=wrap;html=1;" vertex="1" parent="8QcNrkNuKidk-mNTcDju-29">
          <mxGeometry y="58" width="230" height="22" as="geometry" />
        </mxCell>
        <mxCell id="8QcNrkNuKidk-mNTcDju-33" value="BattleUnitAction_MoveKeepDistance" style="swimlane;fontStyle=1;align=center;verticalAlign=top;childLayout=stackLayout;horizontal=1;startSize=26;horizontalStack=0;resizeParent=1;resizeParentMax=0;resizeLast=0;collapsible=1;marginBottom=0;whiteSpace=wrap;html=1;" vertex="1" parent="WIyWlLk6GJQsqaUBKTNV-1">
          <mxGeometry x="1340" y="2700" width="230" height="80" as="geometry" />
        </mxCell>
        <mxCell id="8QcNrkNuKidk-mNTcDju-34" value="&lt;div&gt;-&amp;nbsp;&lt;/div&gt;" style="text;strokeColor=none;fillColor=none;align=left;verticalAlign=top;spacingLeft=4;spacingRight=4;overflow=hidden;rotatable=0;points=[[0,0.5],[1,0.5]];portConstraint=eastwest;whiteSpace=wrap;html=1;" vertex="1" parent="8QcNrkNuKidk-mNTcDju-33">
          <mxGeometry y="26" width="230" height="24" as="geometry" />
        </mxCell>
        <mxCell id="8QcNrkNuKidk-mNTcDju-35" value="" style="line;strokeWidth=1;fillColor=none;align=left;verticalAlign=middle;spacingTop=-1;spacingLeft=3;spacingRight=3;rotatable=0;labelPosition=right;points=[];portConstraint=eastwest;strokeColor=inherit;" vertex="1" parent="8QcNrkNuKidk-mNTcDju-33">
          <mxGeometry y="50" width="230" height="8" as="geometry" />
        </mxCell>
        <mxCell id="8QcNrkNuKidk-mNTcDju-36" value="-&amp;nbsp;" style="text;strokeColor=none;fillColor=none;align=left;verticalAlign=top;spacingLeft=4;spacingRight=4;overflow=hidden;rotatable=0;points=[[0,0.5],[1,0.5]];portConstraint=eastwest;whiteSpace=wrap;html=1;" vertex="1" parent="8QcNrkNuKidk-mNTcDju-33">
          <mxGeometry y="58" width="230" height="22" as="geometry" />
        </mxCell>
        <mxCell id="8QcNrkNuKidk-mNTcDju-65" style="edgeStyle=orthogonalEdgeStyle;rounded=0;orthogonalLoop=1;jettySize=auto;html=1;" edge="1" parent="WIyWlLk6GJQsqaUBKTNV-1" source="8QcNrkNuKidk-mNTcDju-37" target="8QcNrkNuKidk-mNTcDju-4">
          <mxGeometry relative="1" as="geometry">
            <Array as="points">
              <mxPoint x="1040" y="2378" />
              <mxPoint x="1040" y="2419" />
            </Array>
          </mxGeometry>
        </mxCell>
        <mxCell id="8QcNrkNuKidk-mNTcDju-37" value="BattleUnitAction_Move" style="swimlane;fontStyle=1;align=center;verticalAlign=top;childLayout=stackLayout;horizontal=1;startSize=26;horizontalStack=0;resizeParent=1;resizeParentMax=0;resizeLast=0;collapsible=1;marginBottom=0;whiteSpace=wrap;html=1;" vertex="1" parent="WIyWlLk6GJQsqaUBKTNV-1">
          <mxGeometry x="1080" y="2338" width="230" height="80" as="geometry" />
        </mxCell>
        <mxCell id="8QcNrkNuKidk-mNTcDju-38" value="&lt;div&gt;-&amp;nbsp;&lt;/div&gt;" style="text;strokeColor=none;fillColor=none;align=left;verticalAlign=top;spacingLeft=4;spacingRight=4;overflow=hidden;rotatable=0;points=[[0,0.5],[1,0.5]];portConstraint=eastwest;whiteSpace=wrap;html=1;" vertex="1" parent="8QcNrkNuKidk-mNTcDju-37">
          <mxGeometry y="26" width="230" height="24" as="geometry" />
        </mxCell>
        <mxCell id="8QcNrkNuKidk-mNTcDju-39" value="" style="line;strokeWidth=1;fillColor=none;align=left;verticalAlign=middle;spacingTop=-1;spacingLeft=3;spacingRight=3;rotatable=0;labelPosition=right;points=[];portConstraint=eastwest;strokeColor=inherit;" vertex="1" parent="8QcNrkNuKidk-mNTcDju-37">
          <mxGeometry y="50" width="230" height="8" as="geometry" />
        </mxCell>
        <mxCell id="8QcNrkNuKidk-mNTcDju-40" value="-&amp;nbsp;" style="text;strokeColor=none;fillColor=none;align=left;verticalAlign=top;spacingLeft=4;spacingRight=4;overflow=hidden;rotatable=0;points=[[0,0.5],[1,0.5]];portConstraint=eastwest;whiteSpace=wrap;html=1;" vertex="1" parent="8QcNrkNuKidk-mNTcDju-37">
          <mxGeometry y="58" width="230" height="22" as="geometry" />
        </mxCell>
        <mxCell id="8QcNrkNuKidk-mNTcDju-41" value="BattleUnitAction_MeleeAttack" style="swimlane;fontStyle=1;align=center;verticalAlign=top;childLayout=stackLayout;horizontal=1;startSize=26;horizontalStack=0;resizeParent=1;resizeParentMax=0;resizeLast=0;collapsible=1;marginBottom=0;whiteSpace=wrap;html=1;" vertex="1" parent="WIyWlLk6GJQsqaUBKTNV-1">
          <mxGeometry x="1080" y="2790" width="230" height="80" as="geometry" />
        </mxCell>
        <mxCell id="8QcNrkNuKidk-mNTcDju-42" value="&lt;div&gt;-&amp;nbsp;&lt;/div&gt;" style="text;strokeColor=none;fillColor=none;align=left;verticalAlign=top;spacingLeft=4;spacingRight=4;overflow=hidden;rotatable=0;points=[[0,0.5],[1,0.5]];portConstraint=eastwest;whiteSpace=wrap;html=1;" vertex="1" parent="8QcNrkNuKidk-mNTcDju-41">
          <mxGeometry y="26" width="230" height="24" as="geometry" />
        </mxCell>
        <mxCell id="8QcNrkNuKidk-mNTcDju-43" value="" style="line;strokeWidth=1;fillColor=none;align=left;verticalAlign=middle;spacingTop=-1;spacingLeft=3;spacingRight=3;rotatable=0;labelPosition=right;points=[];portConstraint=eastwest;strokeColor=inherit;" vertex="1" parent="8QcNrkNuKidk-mNTcDju-41">
          <mxGeometry y="50" width="230" height="8" as="geometry" />
        </mxCell>
        <mxCell id="8QcNrkNuKidk-mNTcDju-44" value="-&amp;nbsp;" style="text;strokeColor=none;fillColor=none;align=left;verticalAlign=top;spacingLeft=4;spacingRight=4;overflow=hidden;rotatable=0;points=[[0,0.5],[1,0.5]];portConstraint=eastwest;whiteSpace=wrap;html=1;" vertex="1" parent="8QcNrkNuKidk-mNTcDju-41">
          <mxGeometry y="58" width="230" height="22" as="geometry" />
        </mxCell>
        <mxCell id="8QcNrkNuKidk-mNTcDju-66" style="edgeStyle=orthogonalEdgeStyle;rounded=0;orthogonalLoop=1;jettySize=auto;html=1;" edge="1" parent="WIyWlLk6GJQsqaUBKTNV-1" source="8QcNrkNuKidk-mNTcDju-45" target="8QcNrkNuKidk-mNTcDju-4">
          <mxGeometry relative="1" as="geometry">
            <Array as="points">
              <mxPoint x="1040" y="2468" />
              <mxPoint x="1040" y="2419" />
            </Array>
          </mxGeometry>
        </mxCell>
        <mxCell id="8QcNrkNuKidk-mNTcDju-45" value="BattleUnitAction_FindTarget" style="swimlane;fontStyle=1;align=center;verticalAlign=top;childLayout=stackLayout;horizontal=1;startSize=26;horizontalStack=0;resizeParent=1;resizeParentMax=0;resizeLast=0;collapsible=1;marginBottom=0;whiteSpace=wrap;html=1;" vertex="1" parent="WIyWlLk6GJQsqaUBKTNV-1">
          <mxGeometry x="1080" y="2428" width="230" height="80" as="geometry" />
        </mxCell>
        <mxCell id="8QcNrkNuKidk-mNTcDju-46" value="&lt;div&gt;-&amp;nbsp;&lt;/div&gt;" style="text;strokeColor=none;fillColor=none;align=left;verticalAlign=top;spacingLeft=4;spacingRight=4;overflow=hidden;rotatable=0;points=[[0,0.5],[1,0.5]];portConstraint=eastwest;whiteSpace=wrap;html=1;" vertex="1" parent="8QcNrkNuKidk-mNTcDju-45">
          <mxGeometry y="26" width="230" height="24" as="geometry" />
        </mxCell>
        <mxCell id="8QcNrkNuKidk-mNTcDju-47" value="" style="line;strokeWidth=1;fillColor=none;align=left;verticalAlign=middle;spacingTop=-1;spacingLeft=3;spacingRight=3;rotatable=0;labelPosition=right;points=[];portConstraint=eastwest;strokeColor=inherit;" vertex="1" parent="8QcNrkNuKidk-mNTcDju-45">
          <mxGeometry y="50" width="230" height="8" as="geometry" />
        </mxCell>
        <mxCell id="8QcNrkNuKidk-mNTcDju-48" value="-&amp;nbsp;" style="text;strokeColor=none;fillColor=none;align=left;verticalAlign=top;spacingLeft=4;spacingRight=4;overflow=hidden;rotatable=0;points=[[0,0.5],[1,0.5]];portConstraint=eastwest;whiteSpace=wrap;html=1;" vertex="1" parent="8QcNrkNuKidk-mNTcDju-45">
          <mxGeometry y="58" width="230" height="22" as="geometry" />
        </mxCell>
        <mxCell id="8QcNrkNuKidk-mNTcDju-72" style="edgeStyle=orthogonalEdgeStyle;rounded=0;orthogonalLoop=1;jettySize=auto;html=1;" edge="1" parent="WIyWlLk6GJQsqaUBKTNV-1" source="8QcNrkNuKidk-mNTcDju-49" target="8QcNrkNuKidk-mNTcDju-4">
          <mxGeometry relative="1" as="geometry">
            <Array as="points">
              <mxPoint x="1455" y="2310" />
              <mxPoint x="1040" y="2310" />
              <mxPoint x="1040" y="2419" />
            </Array>
          </mxGeometry>
        </mxCell>
        <mxCell id="8QcNrkNuKidk-mNTcDju-49" value="BattleUnitAction_DefenseShield" style="swimlane;fontStyle=1;align=center;verticalAlign=top;childLayout=stackLayout;horizontal=1;startSize=26;horizontalStack=0;resizeParent=1;resizeParentMax=0;resizeLast=0;collapsible=1;marginBottom=0;whiteSpace=wrap;html=1;" vertex="1" parent="WIyWlLk6GJQsqaUBKTNV-1">
          <mxGeometry x="1340" y="2610" width="230" height="80" as="geometry" />
        </mxCell>
        <mxCell id="8QcNrkNuKidk-mNTcDju-50" value="&lt;div&gt;-&amp;nbsp;&lt;/div&gt;" style="text;strokeColor=none;fillColor=none;align=left;verticalAlign=top;spacingLeft=4;spacingRight=4;overflow=hidden;rotatable=0;points=[[0,0.5],[1,0.5]];portConstraint=eastwest;whiteSpace=wrap;html=1;" vertex="1" parent="8QcNrkNuKidk-mNTcDju-49">
          <mxGeometry y="26" width="230" height="24" as="geometry" />
        </mxCell>
        <mxCell id="8QcNrkNuKidk-mNTcDju-51" value="" style="line;strokeWidth=1;fillColor=none;align=left;verticalAlign=middle;spacingTop=-1;spacingLeft=3;spacingRight=3;rotatable=0;labelPosition=right;points=[];portConstraint=eastwest;strokeColor=inherit;" vertex="1" parent="8QcNrkNuKidk-mNTcDju-49">
          <mxGeometry y="50" width="230" height="8" as="geometry" />
        </mxCell>
        <mxCell id="8QcNrkNuKidk-mNTcDju-52" value="-&amp;nbsp;" style="text;strokeColor=none;fillColor=none;align=left;verticalAlign=top;spacingLeft=4;spacingRight=4;overflow=hidden;rotatable=0;points=[[0,0.5],[1,0.5]];portConstraint=eastwest;whiteSpace=wrap;html=1;" vertex="1" parent="8QcNrkNuKidk-mNTcDju-49">
          <mxGeometry y="58" width="230" height="22" as="geometry" />
        </mxCell>
        <mxCell id="8QcNrkNuKidk-mNTcDju-67" style="edgeStyle=orthogonalEdgeStyle;rounded=0;orthogonalLoop=1;jettySize=auto;html=1;" edge="1" parent="WIyWlLk6GJQsqaUBKTNV-1" source="8QcNrkNuKidk-mNTcDju-53" target="8QcNrkNuKidk-mNTcDju-4">
          <mxGeometry relative="1" as="geometry">
            <Array as="points">
              <mxPoint x="1040" y="2560" />
              <mxPoint x="1040" y="2420" />
            </Array>
          </mxGeometry>
        </mxCell>
        <mxCell id="8QcNrkNuKidk-mNTcDju-53" value="BattleUnitAction_Defense" style="swimlane;fontStyle=1;align=center;verticalAlign=top;childLayout=stackLayout;horizontal=1;startSize=26;horizontalStack=0;resizeParent=1;resizeParentMax=0;resizeLast=0;collapsible=1;marginBottom=0;whiteSpace=wrap;html=1;" vertex="1" parent="WIyWlLk6GJQsqaUBKTNV-1">
          <mxGeometry x="1080" y="2520" width="230" height="80" as="geometry" />
        </mxCell>
        <mxCell id="8QcNrkNuKidk-mNTcDju-54" value="&lt;div&gt;-&amp;nbsp;&lt;/div&gt;" style="text;strokeColor=none;fillColor=none;align=left;verticalAlign=top;spacingLeft=4;spacingRight=4;overflow=hidden;rotatable=0;points=[[0,0.5],[1,0.5]];portConstraint=eastwest;whiteSpace=wrap;html=1;" vertex="1" parent="8QcNrkNuKidk-mNTcDju-53">
          <mxGeometry y="26" width="230" height="24" as="geometry" />
        </mxCell>
        <mxCell id="8QcNrkNuKidk-mNTcDju-55" value="" style="line;strokeWidth=1;fillColor=none;align=left;verticalAlign=middle;spacingTop=-1;spacingLeft=3;spacingRight=3;rotatable=0;labelPosition=right;points=[];portConstraint=eastwest;strokeColor=inherit;" vertex="1" parent="8QcNrkNuKidk-mNTcDju-53">
          <mxGeometry y="50" width="230" height="8" as="geometry" />
        </mxCell>
        <mxCell id="8QcNrkNuKidk-mNTcDju-56" value="-&amp;nbsp;" style="text;strokeColor=none;fillColor=none;align=left;verticalAlign=top;spacingLeft=4;spacingRight=4;overflow=hidden;rotatable=0;points=[[0,0.5],[1,0.5]];portConstraint=eastwest;whiteSpace=wrap;html=1;" vertex="1" parent="8QcNrkNuKidk-mNTcDju-53">
          <mxGeometry y="58" width="230" height="22" as="geometry" />
        </mxCell>
        <mxCell id="8QcNrkNuKidk-mNTcDju-69" style="edgeStyle=orthogonalEdgeStyle;rounded=0;orthogonalLoop=1;jettySize=auto;html=1;" edge="1" parent="WIyWlLk6GJQsqaUBKTNV-1" source="8QcNrkNuKidk-mNTcDju-57" target="8QcNrkNuKidk-mNTcDju-4">
          <mxGeometry relative="1" as="geometry">
            <Array as="points">
              <mxPoint x="1040" y="2740" />
              <mxPoint x="1040" y="2420" />
            </Array>
          </mxGeometry>
        </mxCell>
        <mxCell id="8QcNrkNuKidk-mNTcDju-57" value="BattleUnitAction_BowAttack" style="swimlane;fontStyle=1;align=center;verticalAlign=top;childLayout=stackLayout;horizontal=1;startSize=26;horizontalStack=0;resizeParent=1;resizeParentMax=0;resizeLast=0;collapsible=1;marginBottom=0;whiteSpace=wrap;html=1;" vertex="1" parent="WIyWlLk6GJQsqaUBKTNV-1">
          <mxGeometry x="1080" y="2700" width="230" height="80" as="geometry" />
        </mxCell>
        <mxCell id="8QcNrkNuKidk-mNTcDju-58" value="&lt;div&gt;-&amp;nbsp;&lt;/div&gt;" style="text;strokeColor=none;fillColor=none;align=left;verticalAlign=top;spacingLeft=4;spacingRight=4;overflow=hidden;rotatable=0;points=[[0,0.5],[1,0.5]];portConstraint=eastwest;whiteSpace=wrap;html=1;" vertex="1" parent="8QcNrkNuKidk-mNTcDju-57">
          <mxGeometry y="26" width="230" height="24" as="geometry" />
        </mxCell>
        <mxCell id="8QcNrkNuKidk-mNTcDju-59" value="" style="line;strokeWidth=1;fillColor=none;align=left;verticalAlign=middle;spacingTop=-1;spacingLeft=3;spacingRight=3;rotatable=0;labelPosition=right;points=[];portConstraint=eastwest;strokeColor=inherit;" vertex="1" parent="8QcNrkNuKidk-mNTcDju-57">
          <mxGeometry y="50" width="230" height="8" as="geometry" />
        </mxCell>
        <mxCell id="8QcNrkNuKidk-mNTcDju-60" value="-&amp;nbsp;" style="text;strokeColor=none;fillColor=none;align=left;verticalAlign=top;spacingLeft=4;spacingRight=4;overflow=hidden;rotatable=0;points=[[0,0.5],[1,0.5]];portConstraint=eastwest;whiteSpace=wrap;html=1;" vertex="1" parent="8QcNrkNuKidk-mNTcDju-57">
          <mxGeometry y="58" width="230" height="22" as="geometry" />
        </mxCell>
        <mxCell id="8QcNrkNuKidk-mNTcDju-68" style="edgeStyle=orthogonalEdgeStyle;rounded=0;orthogonalLoop=1;jettySize=auto;html=1;" edge="1" parent="WIyWlLk6GJQsqaUBKTNV-1" source="8QcNrkNuKidk-mNTcDju-61" target="8QcNrkNuKidk-mNTcDju-4">
          <mxGeometry relative="1" as="geometry">
            <Array as="points">
              <mxPoint x="1040" y="2650" />
              <mxPoint x="1040" y="2419" />
            </Array>
          </mxGeometry>
        </mxCell>
        <mxCell id="8QcNrkNuKidk-mNTcDju-61" value="BattleUnitAction_AttackShield" style="swimlane;fontStyle=1;align=center;verticalAlign=top;childLayout=stackLayout;horizontal=1;startSize=26;horizontalStack=0;resizeParent=1;resizeParentMax=0;resizeLast=0;collapsible=1;marginBottom=0;whiteSpace=wrap;html=1;" vertex="1" parent="WIyWlLk6GJQsqaUBKTNV-1">
          <mxGeometry x="1080" y="2610" width="230" height="80" as="geometry" />
        </mxCell>
        <mxCell id="8QcNrkNuKidk-mNTcDju-62" value="&lt;div&gt;-&amp;nbsp;&lt;/div&gt;" style="text;strokeColor=none;fillColor=none;align=left;verticalAlign=top;spacingLeft=4;spacingRight=4;overflow=hidden;rotatable=0;points=[[0,0.5],[1,0.5]];portConstraint=eastwest;whiteSpace=wrap;html=1;" vertex="1" parent="8QcNrkNuKidk-mNTcDju-61">
          <mxGeometry y="26" width="230" height="24" as="geometry" />
        </mxCell>
        <mxCell id="8QcNrkNuKidk-mNTcDju-63" value="" style="line;strokeWidth=1;fillColor=none;align=left;verticalAlign=middle;spacingTop=-1;spacingLeft=3;spacingRight=3;rotatable=0;labelPosition=right;points=[];portConstraint=eastwest;strokeColor=inherit;" vertex="1" parent="8QcNrkNuKidk-mNTcDju-61">
          <mxGeometry y="50" width="230" height="8" as="geometry" />
        </mxCell>
        <mxCell id="8QcNrkNuKidk-mNTcDju-64" value="-&amp;nbsp;" style="text;strokeColor=none;fillColor=none;align=left;verticalAlign=top;spacingLeft=4;spacingRight=4;overflow=hidden;rotatable=0;points=[[0,0.5],[1,0.5]];portConstraint=eastwest;whiteSpace=wrap;html=1;" vertex="1" parent="8QcNrkNuKidk-mNTcDju-61">
          <mxGeometry y="58" width="230" height="22" as="geometry" />
        </mxCell>
        <mxCell id="8QcNrkNuKidk-mNTcDju-70" style="edgeStyle=orthogonalEdgeStyle;rounded=0;orthogonalLoop=1;jettySize=auto;html=1;" edge="1" parent="WIyWlLk6GJQsqaUBKTNV-1" source="8QcNrkNuKidk-mNTcDju-42" target="8QcNrkNuKidk-mNTcDju-4">
          <mxGeometry relative="1" as="geometry">
            <Array as="points">
              <mxPoint x="1040" y="2828" />
              <mxPoint x="1040" y="2419" />
            </Array>
          </mxGeometry>
        </mxCell>
        <mxCell id="8QcNrkNuKidk-mNTcDju-71" style="edgeStyle=orthogonalEdgeStyle;rounded=0;orthogonalLoop=1;jettySize=auto;html=1;" edge="1" parent="WIyWlLk6GJQsqaUBKTNV-1" source="8QcNrkNuKidk-mNTcDju-30" target="8QcNrkNuKidk-mNTcDju-4">
          <mxGeometry relative="1" as="geometry">
            <Array as="points">
              <mxPoint x="1040" y="2921" />
              <mxPoint x="1040" y="2419" />
            </Array>
          </mxGeometry>
        </mxCell>
        <mxCell id="8QcNrkNuKidk-mNTcDju-73" style="edgeStyle=orthogonalEdgeStyle;rounded=0;orthogonalLoop=1;jettySize=auto;html=1;" edge="1" parent="WIyWlLk6GJQsqaUBKTNV-1" source="8QcNrkNuKidk-mNTcDju-34" target="8QcNrkNuKidk-mNTcDju-4">
          <mxGeometry relative="1" as="geometry">
            <Array as="points">
              <mxPoint x="1590" y="2738" />
              <mxPoint x="1590" y="2310" />
              <mxPoint x="1040" y="2310" />
              <mxPoint x="1040" y="2419" />
            </Array>
          </mxGeometry>
        </mxCell>
        <mxCell id="8QcNrkNuKidk-mNTcDju-74" value="&lt;b&gt;Extends&lt;/b&gt;" style="text;html=1;align=center;verticalAlign=middle;resizable=0;points=[];autosize=1;strokeColor=none;fillColor=none;" vertex="1" parent="WIyWlLk6GJQsqaUBKTNV-1">
          <mxGeometry x="945" y="2388" width="70" height="30" as="geometry" />
        </mxCell>
        <mxCell id="new-1" value="BattleFieldEnemySpawner" style="swimlane;fontStyle=1;align=center;verticalAlign=top;childLayout=stackLayout;horizontal=1;startSize=26;horizontalStack=0;resizeParent=1;resizeParentMax=0;resizeLast=0;collapsible=1;marginBottom=0;whiteSpace=wrap;html=1;" vertex="1" parent="WIyWlLk6GJQsqaUBKTNV-1">
          <mxGeometry x="-80" y="2330" width="200" height="100" as="geometry" />
        </mxCell>
        <mxCell id="new-2" value="BattleHeroHealthBar" style="swimlane;fontStyle=1;align=center;verticalAlign=top;childLayout=stackLayout;horizontal=1;startSize=26;horizontalStack=0;resizeParent=1;resizeParentMax=0;resizeLast=0;collapsible=1;marginBottom=0;whiteSpace=wrap;html=1;" vertex="1" parent="WIyWlLk6GJQsqaUBKTNV-1">
          <mxGeometry x="-80" y="2450" width="200" height="100" as="geometry" />
        </mxCell>
        <mxCell id="new-3" value="BattleUnitStats" style="swimlane;fontStyle=1;align=center;verticalAlign=top;childLayout=stackLayout;horizontal=1;startSize=26;horizontalStack=0;resizeParent=1;resizeParentMax=0;resizeLast=0;collapsible=1;marginBottom=0;whiteSpace=wrap;html=1;" vertex="1" parent="WIyWlLk6GJQsqaUBKTNV-1">
          <mxGeometry x="-80" y="2570" width="200" height="100" as="geometry" />
        </mxCell>
        <mxCell id="new-4" value="BattleArrow" style="swimlane;fontStyle=1;align=center;verticalAlign=top;childLayout=stackLayout;horizontal=1;startSize=26;horizontalStack=0;resizeParent=1;resizeParentMax=0;resizeLast=0;collapsible=1;marginBottom=0;whiteSpace=wrap;html=1;" vertex="1" parent="WIyWlLk6GJQsqaUBKTNV-1">
          <mxGeometry x="-80" y="2690" width="200" height="100" as="geometry" />
        </mxCell>
        <mxCell id="new-5" value="BattleCharacterUtils" style="swimlane;fontStyle=1;align=center;verticalAlign=top;childLayout=stackLayout;horizontal=1;startSize=26;horizontalStack=0;resizeParent=1;resizeParentMax=0;resizeLast=0;collapsible=1;marginBottom=0;whiteSpace=wrap;html=1;" vertex="1" parent="WIyWlLk6GJQsqaUBKTNV-1">
          <mxGeometry x="-80" y="2810" width="200" height="100" as="geometry" />
        </mxCell>
        <mxCell id="new-6" value="BattleCharacterStyle" style="swimlane;fontStyle=1;align=center;verticalAlign=top;childLayout=stackLayout;horizontal=1;startSize=26;horizontalStack=0;resizeParent=1;resizeParentMax=0;resizeLast=0;collapsible=1;marginBottom=0;whiteSpace=wrap;html=1;" vertex="1" parent="WIyWlLk6GJQsqaUBKTNV-1">
          <mxGeometry x="-80" y="2930" width="200" height="100" as="geometry" />
        </mxCell>
        <mxCell id="new-7" value="BattleUnitMover" style="swimlane;fontStyle=1;align=center;verticalAlign=top;childLayout=stackLayout;horizontal=1;startSize=26;horizontalStack=0;resizeParent=1;resizeParentMax=0;resizeLast=0;collapsible=1;marginBottom=0;whiteSpace=wrap;html=1;" vertex="1" parent="WIyWlLk6GJQsqaUBKTNV-1">
          <mxGeometry x="-80" y="3050" width="200" height="100" as="geometry" />
        </mxCell>
        <mxCell id="new-8" value="BattleInstaller" style="swimlane;fontStyle=1;align=center;verticalAlign=top;childLayout=stackLayout;horizontal=1;startSize=26;horizontalStack=0;resizeParent=1;resizeParentMax=0;resizeLast=0;collapsible=1;marginBottom=0;whiteSpace=wrap;html=1;" vertex="1" parent="WIyWlLk6GJQsqaUBKTNV-1">
          <mxGeometry x="-80" y="3170" width="200" height="100" as="geometry" />
        </mxCell>
        <mxCell id="new-9" value="BattleArrowController" style="swimlane;fontStyle=1;align=center;verticalAlign=top;childLayout=stackLayout;horizontal=1;startSize=26;horizontalStack=0;resizeParent=1;resizeParentMax=0;resizeLast=0;collapsible=1;marginBottom=0;whiteSpace=wrap;html=1;" vertex="1" parent="WIyWlLk6GJQsqaUBKTNV-1">
          <mxGeometry x="-80" y="3290" width="200" height="100" as="geometry" />
        </mxCell>
        <mxCell id="new-10" value="BattleContainer" style="swimlane;fontStyle=1;align=center;verticalAlign=top;childLayout=stackLayout;horizontal=1;startSize=26;horizontalStack=0;resizeParent=1;resizeParentMax=0;resizeLast=0;collapsible=1;marginBottom=0;whiteSpace=wrap;html=1;" vertex="1" parent="WIyWlLk6GJQsqaUBKTNV-1">
          <mxGeometry x="-80" y="3410" width="200" height="100" as="geometry" />
        </mxCell>
        <mxCell id="new-11" value="BattleGrid" style="swimlane;fontStyle=1;align=center;verticalAlign=top;childLayout=stackLayout;horizontal=1;startSize=26;horizontalStack=0;resizeParent=1;resizeParentMax=0;resizeLast=0;collapsible=1;marginBottom=0;whiteSpace=wrap;html=1;" vertex="1" parent="WIyWlLk6GJQsqaUBKTNV-1">
          <mxGeometry x="-80" y="3530" width="200" height="100" as="geometry" />
        </mxCell>
        <mxCell id="new-12" value="BattleCell" style="swimlane;fontStyle=1;align=center;verticalAlign=top;childLayout=stackLayout;horizontal=1;startSize=26;horizontalStack=0;resizeParent=1;resizeParentMax=0;resizeLast=0;collapsible=1;marginBottom=0;whiteSpace=wrap;html=1;" vertex="1" parent="WIyWlLk6GJQsqaUBKTNV-1">
          <mxGeometry x="-80" y="3650" width="200" height="100" as="geometry" />
        </mxCell>
        <mxCell id="new-13" value="Pathfinding" style="swimlane;fontStyle=1;align=center;verticalAlign=top;childLayout=stackLayout;horizontal=1;startSize=26;horizontalStack=0;resizeParent=1;resizeParentMax=0;resizeLast=0;collapsible=1;marginBottom=0;whiteSpace=wrap;html=1;" vertex="1" parent="WIyWlLk6GJQsqaUBKTNV-1">
          <mxGeometry x="-80" y="3770" width="200" height="100" as="geometry" />
        </mxCell>
        <mxCell id="new-14" value="BattleGridEditor" style="swimlane;fontStyle=1;align=center;verticalAlign=top;childLayout=stackLayout;horizontal=1;startSize=26;horizontalStack=0;resizeParent=1;resizeParentMax=0;resizeLast=0;collapsible=1;marginBottom=0;whiteSpace=wrap;html=1;" vertex="1" parent="WIyWlLk6GJQsqaUBKTNV-1">
          <mxGeometry x="-80" y="3890" width="200" height="100" as="geometry" />
        </mxCell>
        <mxCell id="new-15" value="CloudMessage" style="swimlane;fontStyle=1;align=center;verticalAlign=top;childLayout=stackLayout;horizontal=1;startSize=26;horizontalStack=0;resizeParent=1;resizeParentMax=0;resizeLast=0;collapsible=1;marginBottom=0;whiteSpace=wrap;html=1;" vertex="1" parent="WIyWlLk6GJQsqaUBKTNV-1">
          <mxGeometry x="-80" y="4010" width="200" height="100" as="geometry" />
        </mxCell>
      </root>
    </mxGraphModel>
  </diagram>
</mxfile>
